<svg width="149" height="40" viewBox="0 0 149 40" fill="none" xmlns="http://www.w3.org/2000/svg">
<path d="M18.0358 8.78873H9.05564V0H0.0754637L0 26.5164L8.86698 35.3427H26.8651V17.5775L18.0358 8.78873ZM17.9981 26.6667H8.98018V17.6901H17.9981V26.6667Z" fill="#179F57"/>
<path d="M56.2958 19.1173C58.522 20.3943 59.654 22.3098 59.654 24.9014C59.654 27.0422 58.8993 28.8075 57.3523 30.1972C55.843 31.5868 53.9564 32.2629 51.7303 32.2629H40.939V6.94833H50.9379C53.1263 6.94833 54.9375 7.62439 56.4468 8.93894C57.9183 10.2911 58.6729 11.9812 58.6729 14.0469C58.6729 16.1502 57.8806 17.8404 56.2958 19.1173ZM50.9379 11.6056H45.9196V17.1643H50.9379C51.7303 17.1643 52.3717 16.9014 52.9 16.3756C53.4282 15.8497 53.6923 15.1737 53.6923 14.385C53.6923 13.5962 53.4282 12.9202 52.9377 12.3943C52.4094 11.8685 51.7303 11.6056 50.9379 11.6056ZM51.6925 27.6056C52.5226 27.6056 53.2395 27.3051 53.8055 26.7418C54.3715 26.1784 54.6356 25.4648 54.6356 24.6009C54.6356 23.7746 54.3715 23.061 53.8055 22.4976C53.2395 21.9342 52.5604 21.6338 51.6925 21.6338H45.9196V27.6056H51.6925Z" fill="#179F57"/>
<path d="M78.4445 30.0094C76.5956 31.8498 74.294 32.7887 71.615 32.7887C68.9361 32.7887 66.6722 31.8498 64.7856 30.0094C62.9367 28.169 61.9934 25.9155 61.9934 23.2113C61.9934 20.507 62.9367 18.2911 64.7856 16.4131C66.6344 14.5728 68.8983 13.6338 71.615 13.6338C74.3317 13.6338 76.5956 14.5728 78.4445 16.4131C80.2933 18.2535 81.2366 20.507 81.2366 23.2113C81.2366 25.9155 80.3311 28.169 78.4445 30.0094ZM68.106 26.8169C69.0493 27.7559 70.2189 28.2441 71.615 28.2441C73.0111 28.2441 74.1808 27.7559 75.1241 26.8169C76.0674 25.8779 76.5579 24.676 76.5579 23.2488C76.5579 21.8216 76.0674 20.6197 75.1241 19.6807C74.1808 18.7418 73.0111 18.2535 71.615 18.2535C70.2189 18.2535 69.0493 18.7042 68.106 19.6807C67.1627 20.6197 66.7099 21.8216 66.7099 23.2488C66.7099 24.676 67.1627 25.8779 68.106 26.8169Z" fill="#179F57"/>
<path d="M94.5558 18.6667H90.4431V26.1784C90.4431 26.8169 90.594 27.2676 90.9336 27.5681C91.2354 27.8685 91.7259 28.0188 92.3296 28.0563C92.9334 28.0939 93.688 28.0939 94.5936 28.0563V32.3005C91.3864 32.6761 89.0847 32.3756 87.7641 31.3991C86.4435 30.4225 85.802 28.6948 85.802 26.216V18.7042H82.6326V14.1972H85.802V10.5164L90.4808 9.0892V14.1596H94.5936V18.6667H94.5558Z" fill="#179F57"/>
<path d="M100.178 12.0188C99.3856 12.0188 98.7441 11.7183 98.1781 11.1549C97.6122 10.5916 97.3103 9.9155 97.3103 9.16433C97.3103 8.37559 97.6122 7.69954 98.1781 7.13616C98.7441 6.57278 99.4233 6.27231 100.178 6.27231C100.97 6.27231 101.649 6.57278 102.215 7.13616C102.781 7.69954 103.083 8.37559 103.083 9.16433C103.083 9.95306 102.781 10.5916 102.215 11.1549C101.649 11.7183 100.97 12.0188 100.178 12.0188ZM97.8385 32.2629V14.1972H102.517V32.2629H97.8385Z" fill="#179F57"/>
<path d="M120.742 14.1972H125.307V31.3991C125.307 34.1784 124.364 36.3193 122.515 37.784C120.666 39.2488 118.44 40 115.799 40C113.837 40 112.101 39.6244 110.63 38.8732C109.158 38.1221 107.988 37.0329 107.196 35.5681L111.196 33.277C112.101 34.9671 113.686 35.7934 115.95 35.7934C117.421 35.7934 118.591 35.4178 119.421 34.6291C120.251 33.8404 120.704 32.7512 120.704 31.324V29.3709C119.308 31.2113 117.384 32.1127 114.893 32.1127C112.328 32.1127 110.177 31.2113 108.441 29.4085C106.705 27.6056 105.838 25.4272 105.838 22.8357C105.838 20.2817 106.705 18.1033 108.441 16.3005C110.177 14.4977 112.328 13.5963 114.856 13.5963C117.346 13.5963 119.27 14.4977 120.666 16.338V14.1972H120.742ZM111.988 26.4789C112.931 27.4178 114.176 27.8686 115.648 27.8686C117.119 27.8686 118.327 27.4178 119.308 26.4789C120.251 25.5399 120.742 24.3756 120.742 22.9108C120.742 21.4836 120.251 20.3193 119.308 19.3803C118.365 18.4413 117.119 17.9906 115.648 17.9906C114.176 17.9906 112.969 18.4413 111.988 19.3803C111.045 20.3193 110.554 21.4836 110.554 22.9108C110.554 24.3756 111.045 25.5775 111.988 26.4789Z" fill="#179F57"/>
<path d="M143.381 14.1972H148.06V32.2629H143.381V30.1221C141.985 31.8873 139.985 32.7512 137.457 32.7512C135.042 32.7512 132.967 31.8122 131.231 29.9718C129.496 28.1315 128.628 25.8779 128.628 23.1737C128.628 20.4695 129.496 18.2535 131.231 16.3756C132.967 14.5352 135.042 13.5963 137.457 13.5963C139.985 13.5963 141.985 14.4601 143.381 16.2254V14.1972ZM134.74 26.892C135.684 27.831 136.891 28.3193 138.325 28.3193C139.759 28.3193 140.966 27.831 141.947 26.892C142.89 25.9531 143.381 24.7136 143.381 23.2113C143.381 21.7089 142.89 20.5071 141.947 19.5305C141.004 18.5916 139.796 18.1033 138.325 18.1033C136.853 18.1033 135.684 18.5916 134.74 19.5305C133.797 20.4695 133.306 21.7089 133.306 23.2113C133.306 24.7136 133.797 25.9531 134.74 26.892Z" fill="#179F57"/>
</svg>
