<svg width="32" height="32" viewBox="0 0 32 32" fill="none" xmlns="http://www.w3.org/2000/svg">
<path d="M6.66667 14.6667H17.3333V17.3333H6.66667V21.3333L0 16L6.66667 10.6667V14.6667ZM5.33333 24H8.944H8.944C13.3623 27.8965 20.1028 27.4736 23.9993 23.0553C27.8959 18.637 27.4729 11.8965 23.0547 7.99999C19.023 4.44443 12.9756 4.44443 8.944 7.99999H5.33334V7.99999C7.84932 4.6401 11.8025 2.6635 16 2.66666C23.364 2.66666 29.3333 8.63599 29.3333 16C29.3333 23.364 23.364 29.3333 16 29.3333C11.8025 29.3365 7.84932 27.3599 5.33333 24L5.33333 24Z" fill="white"/>
</svg>
