<svg width="20" height="20" viewBox="0 0 20 20" fill="none" xmlns="http://www.w3.org/2000/svg">
<g clip-path="url(#clip0)">
<path d="M12.4997 1.25H5.83307C5.61213 1.25 5.40023 1.33777 5.244 1.494C5.08777 1.65023 5 1.86213 5 2.08307V5.62477L12.4997 9.99955L16.2496 11.5819L19.9995 9.99955V5.62477L12.4997 1.25Z" fill="#21A366"/>
<path d="M5 5.625H12.4997V9.99977H5V5.625Z" fill="#107C41"/>
<path d="M19.1664 1.25H12.4998V5.62477H19.9995V2.08307C19.9995 1.86213 19.9117 1.65023 19.7555 1.494C19.5993 1.33777 19.3874 1.25 19.1664 1.25Z" fill="#33C481"/>
<path d="M12.4997 10H5V17.9169C5 18.1378 5.08777 18.3497 5.244 18.506C5.40023 18.6622 5.61213 18.75 5.83307 18.75H19.1668C19.3878 18.75 19.5997 18.6622 19.7559 18.506C19.9121 18.3497 19.9999 18.1378 19.9999 17.9169V14.3748L12.4997 10Z" fill="#185C37"/>
<path d="M12.4998 10H19.9995V14.3748H12.4998V10Z" fill="#107C41"/>
<path opacity="0.1" d="M10.4156 4.375H5V16.2499H10.4156C10.6364 16.2496 10.8481 16.1619 11.0044 16.0059C11.1608 15.85 11.249 15.6385 11.2499 15.4177V5.20807C11.2492 4.98711 11.1611 4.77542 11.0047 4.61929C10.8484 4.46317 10.6365 4.37533 10.4156 4.375Z" fill="black"/>
<path opacity="0.2" d="M9.79195 5H5V16.8749H9.79195C10.0125 16.8743 10.2239 16.7864 10.38 16.6305C10.536 16.4746 10.6241 16.2633 10.625 16.0427V5.83307C10.6243 5.61233 10.5364 5.40083 10.3803 5.24474C10.2242 5.08865 10.0127 5.00067 9.79195 5Z" fill="black"/>
<path opacity="0.2" d="M9.79195 5H5V15.6247H9.79195C10.0127 15.624 10.2242 15.536 10.3803 15.38C10.5364 15.2239 10.6243 15.0124 10.625 14.7916V5.83307C10.6243 5.61233 10.5364 5.40083 10.3803 5.24474C10.2242 5.08865 10.0127 5.00067 9.79195 5Z" fill="black"/>
<path opacity="0.2" d="M9.16704 5H5V15.6247H9.16704C9.38777 15.624 9.59928 15.536 9.75536 15.38C9.91145 15.2239 9.99944 15.0124 10.0001 14.7916V5.83307C9.99944 5.61233 9.91145 5.40083 9.75536 5.24474C9.59928 5.08865 9.38777 5.00067 9.16704 5Z" fill="black"/>
<path d="M0.83307 5H9.16799C9.38893 5 9.60083 5.08777 9.75706 5.244C9.91329 5.40023 10.0011 5.61213 10.0011 5.83307V14.168C10.0011 14.3889 9.91329 14.6008 9.75706 14.7571C9.60083 14.9133 9.38893 15.0011 9.16799 15.0011H0.83307C0.723563 15.0011 0.61513 14.9795 0.513975 14.9375C0.412819 14.8956 0.320926 14.8341 0.243552 14.7566C0.166178 14.6791 0.104841 14.5871 0.0630499 14.4859C0.021259 14.3847 -0.00016588 14.2762 9.67033e-07 14.1667V5.83307C9.67033e-07 5.61213 0.0877705 5.40023 0.244001 5.244C0.400232 5.08777 0.612126 5 0.83307 5Z" fill="#107C41"/>
<path d="M2.20825 13.1249L4.23063 9.99108L2.37834 6.875H3.86889L4.88008 8.86692C4.97288 9.05562 5.03691 9.19665 5.07216 9.29001H5.08528C5.15185 9.13911 5.22166 8.99244 5.29471 8.85L6.37529 6.875H7.74357L5.84346 9.97373L7.78969 13.1249H6.33509L5.16694 10.9367C5.11197 10.8436 5.06539 10.7457 5.02774 10.6443H5.01039C4.97631 10.7435 4.93103 10.8385 4.87543 10.9274L3.67511 13.1249H2.20825Z" fill="white"/>
</g>
<defs>
<clipPath id="clip0">
<rect width="20" height="20" fill="white"/>
</clipPath>
</defs>
</svg>
