<svg width="53" height="40" viewBox="0 0 53 40" fill="none" xmlns="http://www.w3.org/2000/svg">
<g clip-path="url(#clip0)">
<path d="M43.3447 20.6806C42.9461 20.9236 42.5183 21.05 42.0516 21.0986C41.7939 21.1278 41.5508 21.2931 41.2932 21.3612C40.2091 21.648 39.1201 21.9202 37.9971 22.207C37.1852 18.9936 36.3782 15.7948 35.5664 12.5814C35.7803 12.5182 35.9602 12.4647 36.1595 12.4112C36.1741 12.4793 36.1886 12.5376 36.2032 12.5814C36.3296 12.5182 36.4657 12.4841 36.563 12.4015C36.704 12.2848 36.8449 12.2557 37.0102 12.314C37.0443 12.3286 37.0977 12.348 37.1026 12.3772C37.1318 12.5862 37.3068 12.5473 37.438 12.5765C37.4672 12.5814 37.511 12.5522 37.5304 12.523C37.545 12.5036 37.5353 12.4453 37.5207 12.4355C37.4867 12.4209 37.438 12.4161 37.3991 12.4209C37.3651 12.4258 37.3311 12.455 37.3116 12.4647C37.2533 12.3577 37.2047 12.2654 37.1415 12.1536C38.4103 11.8473 39.6743 11.4 41.0209 11.3028C41.0209 11.3612 41.0209 11.4341 41.0209 11.507C41.0355 11.5119 41.0452 11.5119 41.0598 11.5167C41.0939 11.4535 41.123 11.3903 41.1425 11.3514C41.3369 11.3223 41.5217 11.2445 41.687 11.2736C41.9641 11.3271 42.2412 11.2688 42.5183 11.2882C43.1114 11.3271 43.6607 11.4584 44.1858 11.7063C45.2504 12.207 45.9845 13.0238 46.4026 14.1322C46.7575 15.0704 46.8741 16.0281 46.738 17.015C46.7234 17.122 46.6748 17.2289 46.6408 17.3359C46.5338 17.4477 46.422 17.5595 46.3151 17.6713C46.1206 17.6373 46.0963 17.788 46.0526 17.9144C46.0428 17.929 46.0331 17.9484 46.0234 17.963C45.7754 17.8366 45.8484 18.0602 45.8046 18.1575C45.6247 18.3519 45.4449 18.5464 45.265 18.736C45.2164 18.7214 45.1629 18.7019 45.1192 18.6874C45.0851 18.77 45.056 18.8381 45.0219 18.9061C45.0025 18.8964 44.9879 18.8867 44.9684 18.877C44.9879 18.8332 45.0073 18.7943 45.056 18.6776C44.9539 18.736 44.8858 18.7603 44.8858 18.7846C44.8858 18.8672 44.9052 18.9499 44.9198 19.0325C44.7545 19.2075 44.5844 19.3825 44.4191 19.5576C44.1663 19.8201 43.9184 20.0875 43.6656 20.35C43.5586 20.4715 43.4517 20.5736 43.3447 20.6806ZM38.4006 13.6849C38.9159 15.7073 39.4215 17.7005 39.932 19.6985C40.2382 19.6256 40.4862 19.5673 40.7536 19.5041C40.7779 19.5867 40.7973 19.6742 40.8216 19.7666C40.8654 19.7715 40.9334 19.786 41.0015 19.7958C41.0015 19.8249 41.0015 19.8541 41.0015 19.8833C40.773 19.9368 40.5445 19.9076 40.3112 19.8249C40.3306 19.9999 40.4133 20.0777 40.5688 20.068C40.7681 20.0534 40.9723 20.0243 41.2203 19.9951C41.0841 19.8249 40.9529 19.6645 40.8216 19.5041C40.8265 19.4798 40.8362 19.4506 40.8411 19.4263C41.0209 19.4506 41.2008 19.4749 41.3758 19.4992C41.3515 19.4701 41.3223 19.436 41.2348 19.3242C41.7453 19.4701 42.0516 18.9888 42.4745 19.0763C42.5426 19.0034 42.5961 18.9207 42.669 18.8721C42.8829 18.7311 43.1162 18.6144 43.3204 18.4589C43.9281 17.9824 44.2927 17.365 44.3219 16.5824C44.3413 16.0476 44.2781 15.5226 44.0594 15.0218C43.8552 14.56 43.617 14.1322 43.2037 13.8259C43.0676 13.7238 42.9266 13.6314 42.8294 13.5585C42.8197 13.4662 42.81 13.4078 42.8051 13.3495C42.7516 13.3835 42.6981 13.4175 42.6252 13.4662C42.6155 13.4564 42.5815 13.3981 42.5474 13.3981C42.1682 13.3884 41.8279 13.1404 41.4196 13.2377C41.1522 13.3009 40.8702 13.2085 40.5883 13.2863C40.3209 13.3641 40.0389 13.3738 39.7618 13.4175C39.6597 13.4321 39.5625 13.4662 39.4361 13.5002C39.4361 13.5051 39.4264 13.471 39.4021 13.4564C39.3826 13.4419 39.3535 13.437 39.3194 13.4224C39.3097 13.5974 38.6777 13.7773 38.4006 13.6849ZM37.6957 13.1648C37.8659 13.3252 37.9096 13.1502 37.9485 13.0238C37.9777 12.9314 38.0166 12.8099 37.9777 12.7369C37.9388 12.6689 37.7735 12.5911 37.7297 12.6203C37.5255 12.7467 37.3359 12.6543 37.1026 12.6105C37.1172 12.7272 37.1318 12.8196 37.1464 12.9265C37.4721 12.7272 37.7589 12.7224 37.9777 12.8925C37.8853 12.9849 37.7929 13.0724 37.6957 13.1648ZM42.3773 11.5167C42.3627 11.4973 42.353 11.473 42.3384 11.4535C42.1439 11.473 41.9543 11.4924 41.7453 11.5119C41.755 11.6431 41.7696 11.789 41.7842 11.9299C41.7988 11.9251 41.8182 11.9251 41.8328 11.9202C41.862 11.8181 41.8863 11.716 41.9154 11.6139C41.93 11.6188 41.9495 11.6188 41.9641 11.6237C41.9786 11.6674 41.9884 11.7063 42.0175 11.7987C42.1439 11.6966 42.2606 11.6042 42.3773 11.5167ZM45.7414 17.6616C45.7463 17.6324 45.7463 17.5984 45.7511 17.5692C45.4157 17.472 45.0803 17.3748 44.7254 17.5449C45.0657 17.5789 45.4011 17.6178 45.7414 17.6616ZM41.7453 12.0369C41.6189 12.1633 41.6821 12.2654 41.8522 12.2946C42.0564 12.3286 42.2655 12.3286 42.4745 12.3432C42.4794 12.3432 42.4842 12.3189 42.4988 12.2848C42.2606 12.207 42.0224 12.1293 41.7453 12.0369ZM41.2543 11.3952C41.23 11.7744 40.9966 11.716 40.7827 11.716C40.7341 11.716 40.6806 11.7744 40.632 11.8084C40.8313 11.8327 41.0161 11.8133 41.2008 11.7792C41.3953 11.7403 41.4342 11.6334 41.2543 11.3952ZM45.7171 17.8901C45.7123 17.8561 45.7025 17.822 45.6977 17.7929C45.6199 17.7929 45.5372 17.7929 45.4643 17.7929C45.4157 17.8901 45.3719 17.9776 45.3039 18.1137C45.4108 18.0943 45.4789 18.0845 45.547 18.07C45.5227 17.9873 45.5081 17.9338 45.4983 17.9047C45.581 17.8998 45.6491 17.8949 45.7171 17.8901ZM36.1984 13.437C36.2032 13.4662 36.2032 13.5002 36.2081 13.5294C36.3977 13.5051 36.5873 13.4807 36.806 13.4564C36.5727 13.1891 36.3928 13.4905 36.1984 13.437ZM42.3287 19.5235C42.0953 19.3534 41.9495 19.3777 41.9154 19.6208C42.0613 19.5819 42.1926 19.5527 42.3287 19.5235ZM36.7137 12.9265C36.6456 12.9557 36.563 12.9946 36.4609 13.0384C36.6165 13.1259 36.7234 13.1842 36.8352 13.2425C36.8449 13.2231 36.8498 13.2085 36.8595 13.1891C36.8158 13.1113 36.772 13.0335 36.7137 12.9265ZM37.7297 12.1779C37.6082 12.1876 37.5061 12.1973 37.4089 12.2022C37.5255 12.3091 37.6179 12.3869 37.7297 12.489C37.7297 12.4064 37.7297 12.314 37.7297 12.1779Z" fill="#B9D9BC"/>
<path d="M28.4638 24.6135C27.9582 24.7399 27.4818 24.876 27.0005 24.9635C26.8547 24.9878 26.6845 25.1531 26.5192 24.983C26.5144 24.9781 26.4366 25.0121 26.4269 25.0413C26.3393 25.2746 26.2032 25.1726 26.0622 25.0899C26.0039 25.1969 25.9553 25.299 25.824 25.1337C25.4011 24.6135 24.949 24.1176 24.526 23.5974C24.3802 23.4176 24.2295 23.4516 24.0496 23.4905C23.9475 23.5148 23.8406 23.5051 23.7385 23.5099C23.7093 23.5099 23.6655 23.4856 23.6461 23.5002C23.1065 23.8454 22.4745 23.8891 21.8717 24.035C21.2202 24.1954 20.5737 24.3656 19.932 24.5454C19.8639 24.5649 19.7861 24.667 19.7667 24.7447C19.6889 25.0607 19.6305 25.3767 19.5771 25.6976C19.5479 25.8823 19.5139 26.0476 19.2659 26.0914C19.4798 26.0671 19.4944 26.1594 19.4507 26.3004C19.3875 26.4949 19.334 26.6942 19.2562 26.8838C19.2368 26.9275 19.159 26.9616 19.1006 26.9762C18.8333 27.0345 18.5659 27.0734 18.2985 27.1463C17.9874 27.2289 17.6811 27.3408 17.37 27.4185C17.195 27.4623 17.0054 27.4574 16.7866 27.4769C16.8644 27.0782 16.9324 26.7185 17.0054 26.3587C17.1901 25.4642 17.3797 24.5697 17.5644 23.6752C17.8124 22.4988 18.0603 21.3174 18.3034 20.141C18.5173 19.1055 18.736 18.07 18.9354 17.0296C18.9791 16.7963 19.0812 16.6991 19.3146 16.6456C19.9076 16.5143 20.491 16.3539 21.0744 16.1935C21.2834 16.1351 21.405 16.1935 21.546 16.3636C22.353 17.3408 23.1745 18.3082 23.9913 19.2756C24.9101 20.3694 25.824 21.4633 26.7428 22.5522C27.2533 23.1551 27.7686 23.7579 28.2839 24.3607C28.3423 24.4336 28.3909 24.5163 28.4638 24.6135ZM22.9898 21.7744C22.2849 20.9334 21.614 20.1312 20.8994 19.2805C20.6709 20.384 20.457 21.4049 20.2382 22.4696C21.1862 22.2314 22.0661 22.0126 22.9898 21.7744Z" fill="#B9D9BC"/>
<path d="M5.56153 17.9241C5.68307 17.8755 5.79974 17.8172 5.92128 17.788C6.05254 17.754 6.13518 17.72 6.16435 17.5498C6.31019 16.7234 6.45604 15.8921 6.65536 15.0753C6.72828 14.7739 6.77203 14.4628 6.88384 14.1711C7.01024 13.8502 7.10261 13.5148 7.22414 13.1891C7.34082 12.8731 7.46722 12.5571 7.59848 12.2411C7.72973 11.93 7.87072 11.6188 8.02142 11.3126C8.55132 10.2139 9.159 9.15894 9.90766 8.19637C10.2674 7.73454 10.6272 7.2727 10.9869 6.81572C11.0501 6.73794 11.1133 6.63099 11.2348 6.75739C11.2591 6.78169 11.3369 6.76225 11.3855 6.76225C11.3855 6.7428 11.3904 6.72336 11.3904 6.69905C11.3272 6.67474 11.2689 6.65529 11.2057 6.63099C11.2008 6.61154 11.2008 6.5921 11.1959 6.56779C11.4147 6.53376 11.6383 6.50459 11.8522 6.46084C12.0613 6.41708 12.2217 6.50945 12.3627 6.63585C12.4307 6.69905 12.5037 6.84003 12.4745 6.90323C12.4259 7.00046 12.2995 7.06366 12.2266 7.1463C11.9592 7.47202 11.6967 7.8026 11.4293 8.12831C11.1619 8.45403 10.8945 8.77975 10.5931 9.14436C10.5883 9.15894 10.5785 9.24159 10.5396 9.30965C10.0924 10.0729 9.60625 10.8167 9.19789 11.5994C8.5027 12.9363 7.99225 14.351 7.6714 15.824C7.58389 16.2275 7.50125 16.631 7.4186 17.0345C7.39916 17.1414 7.38943 17.2533 7.37485 17.3797C7.63251 17.3942 7.76376 17.3067 7.80266 17.0588C8.04087 15.5177 8.47354 14.0301 9.11525 12.6106C9.43124 11.9154 9.79099 11.2348 10.175 10.5688C10.5105 9.99025 10.8897 9.43604 11.2834 8.89156C11.6189 8.42972 12.0078 8.00192 12.3821 7.54494C12.4453 7.57411 12.4988 7.60328 12.5426 7.62272C12.6058 7.45743 12.669 7.30187 12.7322 7.14144C12.7613 7.15116 12.7856 7.16089 12.8148 7.17061C12.7905 7.22408 12.771 7.2727 12.7516 7.31645C12.8488 7.35048 12.9412 7.37965 13.0238 7.40396C13.0433 7.32618 13.0676 7.21922 13.1065 7.05879C13.0287 6.9567 13.0725 6.82545 13.2183 6.70391C13.4614 6.49001 13.6996 6.27124 13.9718 6.07678C13.9378 6.1254 13.9038 6.17887 13.894 6.19832C14.0545 6.24693 14.2149 6.28582 14.3607 6.34902C14.3705 6.35389 14.317 6.50945 14.2927 6.5921C14.2684 6.58723 14.2441 6.57751 14.2198 6.57265C14.2343 6.51917 14.2489 6.46084 14.2635 6.39278C14.1128 6.39278 13.9767 6.39278 13.8454 6.39278C13.8406 6.4025 13.8406 6.41708 13.8357 6.42681C13.9281 6.4657 14.0204 6.50459 14.1614 6.55807C14.0642 6.69419 13.9913 6.82545 13.894 6.92754C13.6412 7.19005 13.3787 7.44285 13.1211 7.69565C12.9704 7.84149 12.8731 7.8269 12.7954 7.65189C12.703 7.72967 12.6106 7.8026 12.4988 7.89496C12.6009 7.93872 12.6884 7.97275 12.7808 8.01164C12.7759 8.02622 12.7759 8.05539 12.7711 8.05539C12.5134 8.08456 12.5571 8.36166 12.4162 8.48806C12.246 8.64363 12.0904 8.82836 11.9592 9.02282C11.4633 9.76662 10.9529 10.5056 10.491 11.2737C9.80071 12.4307 9.29026 13.6704 8.92565 14.9684C8.74091 15.6295 8.59993 16.3004 8.43951 16.9713C8.42978 17.0102 8.43951 17.0491 8.43951 17.1123C8.51729 17.1026 8.58535 17.1026 8.65341 17.088C9.70348 16.8206 10.7487 16.5483 11.7988 16.281C12.6106 16.0719 13.4273 15.8726 14.2392 15.6684C15.0316 15.4691 15.8192 15.2698 16.6116 15.0559C16.7137 15.0267 16.8304 14.9441 16.8838 14.8517C17.3943 13.9621 18.0117 13.1551 18.7458 12.4404C18.8284 12.3578 18.9402 12.3092 19.0763 12.2217C19.2951 11.8036 19.7861 11.6286 20.1653 11.3028C20.1896 11.3563 20.2139 11.4001 20.2091 11.3903C20.3695 11.3515 20.5105 11.3126 20.6563 11.2785C20.666 11.2931 20.6806 11.3028 20.6903 11.3174C20.5396 11.4292 20.3841 11.5411 20.2334 11.6529C20.0243 11.8036 19.8201 11.964 19.6062 12.1098C19.543 12.1536 19.4604 12.1585 19.3875 12.1828C19.3583 12.1925 19.3097 12.1973 19.3048 12.2168C19.1736 12.6397 18.7603 12.8196 18.5173 13.1502C18.1575 13.6412 17.7832 14.1225 17.4186 14.6086C17.3651 14.6815 17.3311 14.7739 17.2582 14.91C17.545 14.8323 17.7686 14.7642 17.9922 14.7107C19.5576 14.3169 21.1279 13.928 22.6933 13.5342C23.3982 13.3592 24.0982 13.1696 24.8031 12.9946C24.9004 12.9703 25.0024 12.9946 25.1045 12.9898C25.1337 12.9898 25.158 12.9509 25.1872 12.9412C25.3865 12.8634 25.5664 12.7467 25.8143 12.8148C25.9456 12.8536 26.1108 12.771 26.2616 12.7467C26.3102 12.9946 26.3928 13.0578 26.5289 13.0043C26.49 12.9217 26.422 12.8391 26.422 12.7564C26.4171 12.5522 26.5581 12.5376 26.7234 12.5863C26.6748 12.6008 26.6067 12.6008 26.5873 12.63C26.5532 12.6786 26.5387 12.7516 26.5484 12.805C26.5532 12.8342 26.6407 12.8731 26.6845 12.8634C26.8449 12.8245 26.9956 12.771 27.1512 12.7224L27.1463 12.7272C27.37 12.7175 27.1512 12.878 27.2193 12.9314C27.2241 12.9363 27.1804 13.0335 27.1512 13.0384C26.9859 13.0675 26.8206 13.087 26.6553 13.0967C26.5387 13.1064 26.422 13.0773 26.3102 13.1064C26.2567 13.121 26.2275 13.2231 26.1886 13.2863C26.14 13.2766 26.0476 13.0189 26.0331 13.3058C26.0331 13.3203 25.9456 13.3301 25.8775 13.3495C25.8678 13.262 25.8581 13.1842 25.8483 13.087C25.7851 13.2037 25.756 13.3398 25.6733 13.3884C25.5955 13.437 25.4643 13.3884 25.333 13.3835C25.2066 13.578 24.7351 13.719 24.4531 13.6363C24.3656 13.6947 24.3073 13.753 24.2343 13.7676C23.1794 14.035 22.1196 14.2975 21.0647 14.5649C20.3063 14.7593 19.5479 14.9587 18.7895 15.1531C17.7638 15.4108 16.738 15.6636 15.7122 15.9261C14.6087 16.208 13.5051 16.4949 12.4016 16.7768C11.3078 17.0539 10.2091 17.331 9.11525 17.6033C9.05691 17.6179 8.98399 17.5887 8.90134 17.579C8.84787 17.6179 8.77981 17.6908 8.69716 17.7151C7.85127 17.9339 7.00538 18.1429 6.15949 18.3519C6.11574 18.3617 6.06712 18.3617 6.01851 18.3617C5.85808 18.2207 5.71224 18.07 5.56153 17.9241ZM11.7161 6.82058C11.6335 6.84975 11.5508 6.86434 11.546 6.88864C11.5314 6.97129 11.5411 7.05879 11.5557 7.14144C11.5606 7.16089 11.6237 7.16575 11.6675 7.18033C11.6383 7.10741 11.6189 7.05393 11.5897 6.98587C11.7696 6.9567 11.9057 6.90809 11.8036 6.72336C11.9835 6.72336 12.1439 6.72336 12.3092 6.72336C12.0759 6.46084 11.7793 6.57265 11.4585 6.57265C11.5703 6.6796 11.6481 6.75739 11.7161 6.82058Z" fill="#B9D9BC"/>
<path d="M39.6452 34.5991C39.5042 34.7498 39.3729 34.9151 39.2173 35.0463C38.7798 35.4012 38.3374 35.7415 37.8853 36.0769C37.7978 36.1401 37.6665 36.145 37.5596 36.1693C37.5061 36.1839 37.4478 36.1839 37.3894 36.1936C37.3894 36.2131 37.3943 36.2325 37.3943 36.2568C37.4721 36.2568 37.545 36.2568 37.6957 36.2568C37.5158 36.354 37.3992 36.4172 37.2679 36.4902C37.2485 36.4756 37.1998 36.4415 37.1269 36.3929C37.1269 36.4902 37.1269 36.5582 37.1269 36.6068C36.9714 36.6263 36.8352 36.6409 36.6311 36.67C36.7234 36.7381 36.7672 36.7673 36.845 36.8207C36.6797 36.9277 36.5338 37.0298 36.3783 37.1221C35.3574 37.7347 34.2927 38.2549 33.1794 38.6827C32.7759 38.8382 32.3578 38.9646 31.9398 39.091C31.5168 39.2174 31.089 39.3389 30.6563 39.441C30.1994 39.548 29.7424 39.6549 29.2805 39.7279C27.7006 39.9904 26.1109 40.073 24.5163 39.9418C23.0433 39.8202 21.5946 39.548 20.1751 39.1153C18.0457 38.4639 16.0963 37.4673 14.283 36.1839C14.1955 36.1207 14.1517 35.9992 14.0691 35.9262C14.0205 35.8825 13.9184 35.9019 13.8698 35.8582C13.2135 35.2894 12.562 34.7109 11.9057 34.1372C11.9009 34.1324 11.9009 34.1227 11.896 34.1129C12.1537 33.8553 12.4065 33.5976 12.6641 33.34C12.9023 33.5296 13.1405 33.724 13.4274 33.9574C12.9266 33.9185 12.9266 33.9185 12.9266 34.0254C13.0433 34.0595 13.1551 34.0935 13.2815 34.1275C13.3788 34.0011 13.4176 33.9914 13.5635 34.1032C13.685 34.1956 13.792 34.2977 13.9086 34.3949C15.1191 35.4012 16.4269 36.2568 17.8513 36.9374C18.9597 37.4673 20.107 37.8951 21.298 38.2111C22.4599 38.5174 23.6364 38.7215 24.8323 38.7847C26.3053 38.8577 27.7686 38.8091 29.2319 38.5514C30.598 38.3132 31.9252 37.934 33.2037 37.409C34.1469 37.0201 35.0754 36.5923 35.9261 36.0186C36.422 35.6832 36.9179 35.338 37.4089 34.9977C37.5207 34.9199 37.6277 34.8276 37.7443 34.7595C37.7784 34.7401 37.8416 34.7595 37.8804 34.7644C38.0117 34.4338 38.3374 34.2879 38.5902 34.0692C38.6097 34.0497 38.668 34.0789 38.7069 34.0789C38.8382 34.0789 38.9646 34.0692 39.0958 34.074C39.3292 34.0838 39.5674 34.0983 39.8007 34.1081C39.8639 34.1615 39.9271 34.215 39.9903 34.2685C39.8736 34.3852 39.7618 34.5067 39.6452 34.6234C39.6549 34.5116 39.6597 34.4046 39.6695 34.2928C39.65 34.2879 39.6306 34.2879 39.6111 34.2831C39.5868 34.3609 39.5674 34.4386 39.5285 34.5699C39.4701 34.4338 39.4312 34.3414 39.3826 34.2296C39.3389 34.3268 39.3097 34.3998 39.2951 34.4338C39.1833 34.4581 39.1055 34.4727 39.0277 34.4873C39.0326 34.5067 39.0375 34.5262 39.0423 34.5505C39.2368 34.5602 39.441 34.5796 39.6452 34.5991ZM12.9121 34.4532C12.9169 34.4921 12.9218 34.531 12.9218 34.5699C13.1211 34.5164 13.335 34.6234 13.5343 34.5505C13.5343 34.5164 13.5295 34.4873 13.5295 34.4532C13.3253 34.4532 13.1162 34.4532 12.9121 34.4532Z" fill="#B9D9BC"/>
<path d="M39.9806 34.2539C39.9174 34.2004 39.8542 34.1469 39.791 34.0934C39.7229 34.0205 39.6549 33.9427 39.5868 33.8698C39.4604 33.7434 39.334 33.6121 39.2076 33.4857C39.2659 33.408 39.3194 33.3302 39.3826 33.2573C39.8736 32.7031 40.3987 32.1732 40.8605 31.5898C42.0321 30.1022 42.9509 28.4687 43.6315 26.6991C44.0059 25.722 44.3024 24.7303 44.4969 23.7045C44.5649 23.335 44.6427 22.9655 44.7156 22.5961C44.4774 22.5426 44.3316 22.6155 44.2878 22.8343C44.2441 23.0385 44.2246 23.2475 44.1809 23.4566C43.9572 24.5747 43.651 25.6685 43.2232 26.7283C43.0579 27.1415 42.8877 27.5499 42.6933 27.9534C42.0564 29.2854 41.2932 30.5397 40.3306 31.6578C39.7958 32.285 39.2125 32.8732 38.6437 33.4712C38.5999 33.5198 38.4978 33.5101 38.4687 33.5198C38.3909 33.6413 38.3423 33.7531 38.2596 33.826C37.929 34.1129 37.5936 34.39 37.2484 34.6525C37.0686 34.7886 36.8595 34.8956 36.6699 35.0171C36.3782 35.2067 36.0914 35.406 35.8046 35.6005C35.7463 35.4838 35.6831 35.3671 35.6247 35.2505C35.5955 35.2018 35.5664 35.1581 35.5372 35.1095C35.7803 34.9879 36.0282 34.8664 36.2762 34.7449C36.2907 34.7643 36.3005 34.7789 36.315 34.7983C36.3345 34.706 36.3588 34.6136 36.3928 34.458C36.4317 34.6136 36.456 34.7011 36.4852 34.8178C36.5727 34.7643 36.6262 34.7303 36.6699 34.706C36.6067 34.6185 36.5484 34.5407 36.4949 34.4726C40.4084 31.512 42.8002 27.6617 43.6753 22.7954C43.1065 22.9412 42.6106 23.0774 42.1099 23.194C41.614 23.3107 41.1133 23.4177 40.6126 23.5295C40.5494 23.5441 40.4862 23.5586 40.423 23.5684C40.6563 23.3399 40.8897 23.1114 41.123 22.8829C41.4001 22.7905 41.6675 22.6787 41.9495 22.6058C42.4551 22.4745 42.9655 22.3676 43.4711 22.2461C43.8309 22.1585 44.1857 22.037 44.5503 21.9641C44.6816 21.9398 44.8323 22.0127 44.9782 22.0419C44.9879 22.0224 44.9976 22.003 45.0073 21.9835C44.949 21.9495 44.8858 21.9155 44.8274 21.8814C44.8274 21.8717 44.8274 21.8571 44.8274 21.8474C44.9344 21.862 45.0414 21.8766 45.1483 21.8912C45.3719 22.1148 45.5956 22.3336 45.8192 22.5572C45.7997 22.8537 45.8095 23.1503 45.7608 23.442C45.4303 25.2456 44.8858 26.9811 44.0934 28.634C43.4079 30.0584 42.5669 31.3856 41.5751 32.6155C41.5071 32.7031 41.4001 32.7565 41.2834 32.8538C41.264 32.9024 41.2397 33.0142 41.1765 33.0871C40.9237 33.3788 40.6612 33.6608 40.3938 33.933C40.2625 34.0448 40.1167 34.1469 39.9806 34.2539Z" fill="#B9D9BC"/>
<path d="M12.7322 25.0607C12.81 25.2941 12.5669 25.2843 12.4745 25.367C12.2898 25.5274 12.0516 25.6246 11.8377 25.7608C11.5363 25.9504 11.2008 25.9503 10.8654 25.926C10.8411 25.926 10.8119 25.9406 10.7195 25.9649C10.8556 26.0038 10.9237 26.0233 10.9918 26.0427C10.9966 26.0622 11.0015 26.0816 11.0064 26.0962C10.1556 26.3393 9.30485 26.5823 8.43465 26.8303C8.65827 27.7199 8.87704 28.6096 9.11039 29.5332C8.92079 29.5332 8.78953 29.5332 8.66314 29.5332C8.61938 29.5673 8.57077 29.6402 8.50757 29.6548C7.91447 29.8104 7.32138 29.9562 6.69911 30.1118C6.26158 28.3616 5.78516 26.6358 5.41569 24.8517C5.37193 24.7301 5.27471 24.5794 5.26012 24.4239C5.24554 24.2829 5.22123 24.1565 5.17261 24.0252C5.09483 23.8162 5.04622 23.5974 4.98788 23.3835C4.94899 23.2425 5.01705 23.1988 5.14831 23.1842C5.23095 23.1745 5.30387 23.1307 5.38166 23.1015C5.37193 23.0821 5.36221 23.0626 5.35249 23.0481C5.20178 23.0481 5.04622 23.0481 4.89551 23.0481C4.88579 23.0286 4.87607 23.014 4.86634 22.9946C4.90524 22.9605 4.93927 22.9265 4.9344 22.9314C4.88579 22.7612 4.84204 22.6057 4.7837 22.4112C4.88093 22.4452 4.94413 22.4647 5.00733 22.4841C4.9733 22.5862 4.94899 22.6834 4.90524 22.8147C5.09969 22.7466 5.2504 22.698 5.44972 22.63C5.50805 22.664 5.62473 22.7369 5.77057 22.8244C5.8046 22.7758 5.85808 22.7078 5.90669 22.6397C5.95045 22.6057 5.98934 22.5765 6.03309 22.5425C6.17407 22.6446 6.31506 22.7515 6.48034 22.8682C6.56785 22.3286 6.56785 22.3286 6.36367 22.3918C6.37825 22.4841 6.39284 22.5765 6.40256 22.6689C6.38798 22.6737 6.37825 22.6786 6.36367 22.6834C6.30047 22.5716 6.23241 22.4598 6.16921 22.3431C6.24213 22.3188 6.31506 22.2799 6.39284 22.2702C6.60188 22.2362 6.70397 22.3431 6.67966 22.5522C6.6748 22.5862 6.66508 22.6251 6.65536 22.6591C6.68453 22.664 6.71369 22.6689 6.74286 22.6737C6.75259 22.5668 6.738 22.4501 6.78662 22.3626C6.84009 22.2702 6.94704 22.2119 7.0151 22.1584C6.83523 22.139 6.6505 22.1195 6.4609 22.1001C6.53382 22.0223 6.60674 21.9445 6.6748 21.8667C6.78175 21.7646 6.88871 21.6625 6.99566 21.5653C7.00052 21.5556 7.01024 21.5459 7.0151 21.5361C7.18039 21.4632 7.29221 21.3417 7.36513 21.1764C7.57417 20.9819 7.77835 20.7875 7.98739 20.593C8.05059 20.7729 8.17213 20.8264 8.35686 20.7389C8.34228 20.768 8.33256 20.7972 8.31797 20.8215C8.42006 20.875 8.52215 20.9285 8.62424 20.9771C8.65827 21.0111 8.6923 21.0451 8.72633 21.0743C8.77495 21.1132 8.8187 21.1521 8.86732 21.191C8.82356 21.2104 8.77495 21.2542 8.74092 21.2396C8.58535 21.191 8.43465 21.1132 8.27908 21.084C8.20616 21.0694 8.11379 21.1472 8.03601 21.1861C8.04573 21.2056 8.05545 21.2299 8.07004 21.2493C8.21102 21.2493 8.35686 21.2493 8.49785 21.2493C8.42979 21.3174 8.35686 21.3465 8.28394 21.3514C8.11379 21.3611 7.89017 21.1813 7.80752 21.4924C7.80266 21.507 7.74918 21.507 7.71515 21.5118C7.56445 21.541 7.4186 21.5799 7.2679 21.5945C7.13178 21.6091 7.0783 21.6528 7.12206 21.7938C7.16581 21.9348 7.2679 22.1195 7.21442 22.207C7.11719 22.382 7.16581 22.4355 7.32138 22.4793C7.26304 22.523 7.21929 22.5619 7.14636 22.6202C7.24359 22.6251 7.29707 22.63 7.35054 22.63C7.36513 22.7515 7.37485 22.8633 7.38944 22.9849C7.32624 23.0043 7.21929 23.0335 7.11233 23.0675C7.11719 23.0967 7.12206 23.1258 7.13178 23.155C7.25332 23.155 7.37485 23.155 7.54986 23.155C7.49153 23.2231 7.47208 23.2425 7.45263 23.2668C7.2679 23.471 7.29221 23.5488 7.54014 23.6363C7.59848 23.6557 7.65682 23.7432 7.6714 23.8113C7.68112 23.8599 7.62279 23.9231 7.59362 23.9766C7.52069 23.9669 7.44777 23.9523 7.37485 23.9426C7.42347 23.9085 7.47208 23.8745 7.57903 23.8064C7.4575 23.7724 7.3943 23.7384 7.32624 23.7335C7.20956 23.7189 7.08803 23.7189 6.97135 23.7189C6.67966 23.7141 6.6748 23.7189 6.73314 23.9134C6.87412 23.9231 7.00538 23.928 7.13664 23.9377C7.15609 24.0155 7.18039 24.0981 7.19984 24.1759C7.32624 24.0981 7.54986 24.2051 7.59848 23.9766C7.55959 24.1127 7.55959 24.2294 7.7346 24.278C7.77349 24.2877 7.8221 24.3607 7.81724 24.3898C7.76863 24.6037 7.97767 24.7204 7.97767 24.9343C8.43465 24.8225 8.86246 24.7204 9.29026 24.6134C9.35832 25.0315 9.35832 25.0315 9.44583 25.051C9.40694 24.8468 9.41666 24.8371 9.64029 24.9003C9.6014 24.9538 9.56737 25.0024 9.53334 25.051C9.55764 25.0656 9.58681 25.085 9.61112 25.0996C9.64515 25.0315 9.71321 24.9489 9.69862 24.8906C9.67918 24.8128 9.59167 24.7544 9.52847 24.6864C9.50903 24.6961 9.48958 24.7107 9.47014 24.7204C9.475 24.6669 9.475 24.6086 9.47986 24.594C9.79585 24.4822 10.0827 24.3801 10.389 24.2683C10.3501 24.3363 10.3258 24.385 10.282 24.4676C10.4959 24.3023 10.6709 24.1662 10.8459 24.0252C10.9869 23.9183 11.0987 23.7627 11.2203 23.6168C11.2348 23.6023 11.3175 23.646 11.3661 23.6655C11.8134 24.1467 12.2703 24.6037 12.7322 25.0607ZM6.98107 23.6412C6.98107 23.6168 6.98107 23.578 6.98107 23.5391C6.82551 23.5585 6.66994 23.578 6.51437 23.5974C6.50465 23.5731 6.49493 23.5536 6.48521 23.5293C6.55327 23.5002 6.61647 23.4759 6.68453 23.4467C6.77689 23.4078 6.88871 23.3884 6.94704 23.3203C7.00052 23.262 6.9908 23.1501 7.00538 23.0626C6.98594 23.0578 6.96163 23.0529 6.94218 23.0481C6.88385 23.3057 6.85468 23.3154 6.66508 23.1453C6.59216 23.0821 6.51924 23.014 6.44631 22.9508C6.42201 23.0189 6.42201 23.0918 6.4609 23.1356C6.49979 23.1793 6.56785 23.1988 6.63591 23.2377C6.36367 23.3835 6.34909 23.4321 6.45604 23.6946C6.63105 23.68 6.79634 23.6606 6.98107 23.6412ZM5.72196 22.9751C5.71224 23.0383 5.69765 23.121 5.67821 23.2571C5.90183 23.2085 6.09143 23.1696 6.27616 23.1307C6.27616 23.1161 6.27616 23.1015 6.27616 23.0869C6.10115 23.0529 5.92614 23.014 5.72196 22.9751ZM11.2008 25.5663C11.0355 25.4545 10.914 25.367 10.7876 25.2746C10.773 25.3475 10.7633 25.4204 10.7536 25.4885C10.6806 25.5128 10.6126 25.5371 10.5445 25.5566C10.5494 25.576 10.5542 25.5955 10.5542 25.6149C10.7584 25.6003 10.9675 25.5857 11.2008 25.5663ZM10.5931 25.4059C10.4424 25.1433 10.2626 25.2503 10.0632 25.2552C10.1848 25.3864 10.2771 25.4885 10.3695 25.5906C10.389 25.5809 10.4035 25.576 10.423 25.5663C10.3987 25.4982 10.3792 25.4253 10.3452 25.3232C10.4376 25.3524 10.5008 25.3718 10.5931 25.4059ZM6.25672 24.7301C6.1449 24.8468 6.00878 24.8614 5.91156 24.7739C5.94559 24.9343 5.92128 25.1239 6.14977 25.0753C6.32964 25.0364 6.31992 24.8954 6.25672 24.7301ZM11.0355 25.1288C10.9869 25.3427 11.1765 25.3281 11.2786 25.367C11.4439 25.4253 11.58 25.3621 11.6286 25.2065C11.3904 25.435 11.2543 25.1628 11.0355 25.1288ZM7.00538 25.0267C7.00052 25.0024 6.99566 24.9781 6.98594 24.9489C6.80606 24.9635 6.62133 24.9732 6.44145 24.9878C6.44631 25.0121 6.44631 25.0413 6.45118 25.0656C6.63591 25.051 6.82065 25.0364 7.00538 25.0267Z" fill="#B9D9BC"/>
<path d="M29.9904 14.5696C30.0293 14.5258 30.073 14.4772 30.1168 14.4286C30.1168 14.4091 30.1119 14.3848 30.1119 14.3654C29.9661 14.3751 29.8202 14.3897 29.6744 14.3848C29.582 14.38 29.4896 14.3508 29.3973 14.3314C29.3924 14.3022 29.3827 14.2682 29.3778 14.239C29.5625 14.1466 29.7376 14.03 29.9272 13.9716C30.0827 13.923 30.2626 13.9473 30.4279 13.9327C30.4765 13.9279 30.5154 13.889 30.564 13.8647C30.6467 13.8209 30.7293 13.782 30.8119 13.7383C30.8217 13.7626 30.8314 13.7917 30.8411 13.8161C30.7682 13.8355 30.6904 13.8598 30.6175 13.8793C30.6175 13.8987 30.6175 13.9133 30.6175 13.9327C30.7731 13.9327 30.9238 13.9327 31.0696 13.9327C31.055 13.8938 31.0064 13.8112 31.0259 13.7966C31.0939 13.7285 31.1766 13.6799 31.2932 13.5973C31.4488 14.205 31.5849 14.7446 31.721 15.2842C31.6724 15.3134 31.6287 15.3377 31.5801 15.3669C31.6578 15.4203 31.721 15.4641 31.8134 15.5321C31.6724 15.5759 31.5801 15.6051 31.4926 15.6342C31.4926 15.644 31.4926 15.6537 31.4926 15.6683C31.6044 15.678 31.7162 15.6877 31.828 15.6974C31.828 15.7169 31.828 15.7315 31.828 15.7509C31.7016 15.7704 31.5752 15.7947 31.4488 15.8141C31.4488 15.8433 31.4488 15.8724 31.4488 15.9016C31.5995 15.9259 31.7453 15.9551 31.8961 15.9794C31.8329 16.1301 31.862 16.2322 31.9544 16.3732C32.0711 16.553 32.1002 16.7961 32.1537 17.0149C32.3725 17.8656 32.5912 18.7212 32.8052 19.572C33.1066 20.763 33.408 21.9492 33.7045 23.1403C33.7142 23.1792 33.7142 23.2181 33.7191 23.2861C32.9267 23.4903 32.1391 23.6896 31.337 23.8987C31.2106 23.4271 31.0842 22.9701 30.9675 22.5132C30.7585 21.6916 30.5543 20.87 30.3452 20.0484C30.1751 19.3824 30.0049 18.7164 29.8445 18.0504C29.8299 17.9872 29.8883 17.9045 29.8688 17.8608C29.7716 17.5788 29.6452 17.3066 29.5869 17.0197C29.5285 16.7281 29.5334 16.4218 29.5139 16.1155C29.4896 16.1447 29.4507 16.1933 29.407 16.2516C29.3875 16.2127 29.3632 16.1787 29.3535 16.1398C29.2222 15.6002 29.0861 15.0557 28.9597 14.5161C28.9403 14.4237 28.9743 14.3216 28.984 14.2244C29.1056 14.2682 29.232 14.2973 29.3438 14.3605C29.4507 14.4189 29.5334 14.5161 29.6549 14.6133C29.5771 14.73 29.4896 14.8661 29.3973 15.0071C29.4118 15.0168 29.4313 15.0266 29.4459 15.0314C29.4945 14.9974 29.5382 14.9634 29.5869 14.9245C29.6014 14.9342 29.616 14.9488 29.6306 14.9585C29.5771 15.0314 29.5237 15.1043 29.4702 15.1773C29.6938 15.1286 29.7619 15.012 29.757 14.696C29.7765 14.6911 29.8008 14.6863 29.8202 14.6765C29.8348 14.7592 29.8542 14.8418 29.8688 14.905C30.0876 14.8321 30.3209 14.7543 30.5494 14.6765C30.5543 14.6619 30.5591 14.6474 30.5591 14.6279C30.3744 14.6085 30.1897 14.589 29.9904 14.5696ZM30.4473 15.571C30.5397 15.4446 30.6078 15.362 30.389 15.2939C30.4133 15.537 30.2723 15.6245 30.0681 15.5808C29.8591 15.537 29.9077 15.7412 29.8105 15.7947C29.8397 15.8433 29.8688 15.8967 29.898 15.9454C29.9661 15.8919 30.0341 15.8335 30.107 15.7898C30.1751 15.746 30.248 15.7072 30.3258 15.6926C30.4668 15.6683 30.6078 15.6634 30.7487 15.6488C30.7487 15.6196 30.7439 15.5953 30.7439 15.5662C30.6467 15.571 30.5494 15.571 30.4473 15.571ZM29.6841 16.4655C29.8494 16.4266 29.9806 16.3926 30.107 16.3586C30.107 16.3391 30.1022 16.3197 30.1022 16.3002C29.9612 16.2565 29.8202 16.2127 29.6646 16.1641C29.6695 16.2419 29.6744 16.3294 29.6841 16.4655ZM30.6321 16.9614C30.7779 16.9371 30.8897 16.9371 30.987 16.9031C31.0696 16.8788 31.1377 16.8156 31.2106 16.7669C31.1911 16.7329 31.1668 16.694 31.1474 16.66C31.0988 16.9906 30.7147 16.6454 30.6321 16.9614ZM30.3452 15.0995C30.3452 15.1238 30.3452 15.1481 30.3452 15.1773C30.5397 15.1773 30.7342 15.1773 30.9286 15.1773C30.9286 15.1529 30.9286 15.1286 30.9286 15.0995C30.7342 15.0995 30.5397 15.0995 30.3452 15.0995Z" fill="#B9D9BC"/>
<path d="M12.6641 33.3398C12.4064 33.5975 12.1536 33.8551 11.896 34.1128C11.6869 33.9086 11.4779 33.7044 11.264 33.4954C11.3175 33.4225 11.3612 33.3544 11.4098 33.2912C11.3952 33.2766 11.3855 33.262 11.3709 33.2426C11.3175 33.2718 11.264 33.3009 11.2494 33.3155C11.123 33.2231 10.9917 33.1599 10.8994 33.0579C10.7146 32.8634 10.5445 32.6592 10.3792 32.4502C10.1458 32.1536 9.92708 31.8425 9.684 31.5459C9.63539 31.4876 9.50899 31.4438 9.43607 31.4584C8.63879 31.6529 7.84152 31.8619 7.04424 32.0612C6.95187 32.0856 6.84978 32.0661 6.772 32.0661C6.66991 32.1147 6.5824 32.1828 6.48517 32.2071C5.55663 32.4502 4.6281 32.6835 3.69956 32.9217C3.58775 32.9509 3.51482 32.9509 3.49052 32.8099C3.46621 32.6641 3.42246 32.5182 3.3787 32.3578C4.33155 32.1147 5.25036 31.8765 6.17404 31.6432C6.84492 31.473 7.52066 31.298 8.1964 31.1376C8.33738 31.1035 8.49295 31.1278 8.63393 31.0938C8.7263 31.0744 8.79922 30.9869 8.89159 30.9626C9.55761 30.7875 10.2188 30.6174 10.8896 30.457C10.9626 30.4375 11.0452 30.4764 11.1084 30.4813C11.3661 30.2771 11.6772 30.2576 11.9737 30.1896C12.0953 30.1604 12.2071 30.1118 12.3238 30.0778C12.9801 29.9125 13.6412 29.7472 14.2975 29.5868C15.0462 29.402 15.7948 29.2173 16.5484 29.0374C16.7477 28.9888 16.947 28.9548 17.1512 28.9256C17.1901 28.9207 17.2338 28.9742 17.2776 29.0034C17.2484 29.0374 17.229 29.0909 17.1949 29.1006C17.0102 29.1395 16.9665 29.3145 16.8546 29.4263C16.7914 29.4895 16.7331 29.5916 16.6602 29.6111C16.2421 29.7083 15.8192 29.7861 15.3962 29.8784C15.3622 29.8833 15.3379 29.9368 15.3136 29.9708C15.2698 29.9028 15.2261 29.8347 15.1823 29.7618C15.1629 29.7715 15.1483 29.7764 15.1288 29.7861C15.1483 29.8541 15.1629 29.9222 15.1872 30.0048C14.0447 30.2917 12.9169 30.5736 11.8182 30.8459C12.0078 31.0501 12.2411 31.298 12.4939 31.5702C12.3821 31.5557 12.3043 31.5459 12.2217 31.5313C12.7224 31.6383 12.9071 32.105 13.2329 32.3918C13.5391 32.6641 13.8357 32.9558 14.1274 33.2474C14.2003 33.3204 14.244 33.4176 14.317 33.5294C14.3802 33.5586 14.5066 33.5829 14.5941 33.6558C16.0136 34.8371 17.5741 35.7851 19.2805 36.4803C20.4229 36.9519 21.6091 37.2971 22.8294 37.5304C23.3544 37.6325 23.8843 37.6762 24.4093 37.7638C24.4823 37.7783 24.5503 37.827 24.5892 37.8464C24.7837 37.8318 24.9538 37.8124 25.124 37.8172C25.1774 37.8172 25.2261 37.9193 25.2844 37.9242C25.3525 37.9339 25.4302 37.8999 25.4886 37.8464C25.5469 37.8658 25.6053 37.8853 25.6636 37.9047C25.7608 38.002 25.8581 38.0992 25.9553 38.1964C25.8775 38.2596 25.7949 38.3228 25.7171 38.3909C25.6296 38.4103 25.5421 38.4444 25.4594 38.4395C24.9101 38.4006 24.3607 38.3666 23.8162 38.3082C23.4857 38.2742 23.1599 38.2061 22.8342 38.1527C21.5119 37.9436 20.2431 37.5547 19.0083 37.0443C17.7783 36.5387 16.6164 35.9067 15.5323 35.1483C14.6475 34.526 13.7871 33.8746 13.0676 33.0579C12.9801 32.9606 12.9071 32.7613 12.8294 32.7613C12.5668 32.7613 12.6446 32.5571 12.5668 32.4599C12.4891 32.4404 12.3724 32.387 12.3772 32.3627C12.4161 32.2314 12.3043 32.2703 12.2654 32.2265C12.0953 32.0467 11.9494 31.8473 11.7987 31.6529C11.823 31.6383 11.8474 31.6237 11.896 31.5945C11.6626 31.5508 11.6237 31.5216 11.3855 31.2056C11.1716 30.9188 11.0501 30.9188 10.8605 31.1619C11.2154 31.5945 11.5654 32.0175 11.9203 32.4502C11.789 32.4745 11.6529 32.4988 11.5216 32.5231C11.5216 32.5474 11.5216 32.5717 11.5216 32.596C11.7112 32.596 11.9057 32.596 12.0953 32.596C12.0953 32.6203 12.0953 32.6446 12.0953 32.6738C11.9057 32.6884 11.721 32.6981 11.5314 32.7127C11.5314 32.7419 11.5362 32.771 11.5362 32.8002C11.7696 32.8099 12.0029 32.8196 12.2995 32.8342C12.3724 32.9606 12.5182 33.1502 12.6641 33.3398ZM11.0355 31.5168C10.8702 31.3758 10.7049 31.2299 10.5348 31.089C10.5153 31.1035 10.4959 31.123 10.4764 31.1376C10.5396 31.2202 10.6514 31.298 10.666 31.3904C10.7146 31.6723 10.8459 31.6529 11.0355 31.5168ZM10.8459 30.8507C10.8653 30.773 10.8848 30.7292 10.8896 30.6806C10.8896 30.6417 10.8751 30.6028 10.8653 30.5639C10.8264 30.5834 10.7584 30.6125 10.7632 30.6271C10.7924 30.7778 10.7098 30.8021 10.5882 30.807C10.5688 30.807 10.5493 30.8751 10.5202 30.9285C10.6709 30.8945 10.7778 30.8653 10.8459 30.8507ZM9.22703 31.2202C9.02285 31.264 8.86242 31.298 8.70685 31.332C9.07146 31.439 9.08605 31.4341 9.22703 31.2202ZM11.0355 32.5085C11.0258 32.5717 10.9772 32.6835 11.0063 32.7078C11.0987 32.7905 11.2154 32.8391 11.3272 32.9023C11.3272 32.8877 11.3272 32.878 11.3272 32.8634C11.2494 32.7613 11.1667 32.6641 11.0355 32.5085Z" fill="#B9D9BC"/>
<path d="M23.4079 0.23333C23.5975 0.189577 23.7871 0.116655 23.9815 0.102071C25.3525 -0.0146037 26.7331 -0.0437724 28.0992 0.106933C29.543 0.26736 30.9723 0.544463 32.3432 1.04033C32.9266 1.24937 33.5051 1.46814 34.0836 1.69663C34.1614 1.7258 34.2198 1.81816 34.2587 1.85705C34.4288 1.90081 34.5844 1.9397 34.7983 1.99318C34.6913 2.03207 34.6524 2.04179 34.6135 2.05637C34.9976 2.07096 35.299 2.21194 35.4983 2.56196C35.508 2.52793 35.5226 2.48418 35.5372 2.41612C35.7171 2.51335 35.897 2.60086 36.0671 2.70295C37.0443 3.28632 37.9874 3.92317 38.8625 4.65725C39.2319 4.96838 39.5868 5.29896 39.9417 5.62468C40.0146 5.69274 40.0632 5.78997 40.1264 5.87261C39.8688 6.13027 39.6111 6.39279 39.3486 6.65044C39.0229 6.34903 38.6972 6.04276 38.3714 5.74135C38.3034 5.68302 38.2159 5.64899 38.1381 5.59551C37.1901 4.92463 36.2518 4.23916 35.2844 3.59259C34.9295 3.35438 34.5114 3.20854 34.1274 3.00922C33.9475 2.91685 33.792 2.78073 33.6121 2.69809C33.5051 2.64461 33.3593 2.66892 33.2426 2.62516C32.7273 2.44043 32.2168 2.23625 31.7015 2.06124C31.3272 1.93484 30.9383 1.84733 30.5639 1.73066C30.4521 1.69663 30.35 1.60912 30.2382 1.57509C30.175 1.55564 30.0924 1.5994 30.0243 1.59454C29.8736 1.57509 29.7278 1.5362 29.5771 1.51675C28.8867 1.42439 28.2013 1.30285 27.511 1.2591C26.6505 1.20562 25.7851 1.2202 24.9198 1.21048C24.7399 1.20562 24.5552 1.21048 24.3753 1.21534C24.0545 0.879903 23.7336 0.554186 23.4079 0.23333Z" fill="#B9D9BC"/>
<path d="M12.7321 25.0605C12.2703 24.6036 11.8133 24.1466 11.3515 23.6945C11.3515 23.641 11.3661 23.5778 11.3466 23.534C11.2591 23.3445 11.332 23.1646 11.4779 23.1208C11.439 23.0333 11.3709 22.9458 11.3563 22.8486C11.2883 22.3284 11.1862 21.8325 10.7924 21.4388C10.6952 21.3464 10.6368 21.2151 10.5639 21.1033C10.5396 21.1325 10.4959 21.1957 10.4521 21.2443C10.3938 21.2103 10.3403 21.1762 10.2868 21.1519C10.209 21.1179 10.1312 21.0936 10.0729 21.0742C9.86873 21.1082 9.64996 21.1422 9.43606 21.1811C9.42147 21.1471 9.41175 21.113 9.39717 21.0839C9.48953 21.0401 9.5819 20.9818 9.67913 20.9526C9.90276 20.8846 9.90276 20.8894 9.90276 20.8165C9.74719 20.8408 9.58676 20.8603 9.41175 20.8846C9.38744 20.9429 9.34855 21.0255 9.31452 21.1082C9.29994 21.0936 9.29021 21.0742 9.27563 21.0596C9.19785 21.1033 9.12492 21.1519 9.04714 21.1811C8.99366 21.2006 8.93046 21.1957 8.86727 21.2006C8.81865 21.1617 8.7749 21.1228 8.72628 21.0839C8.76518 21.0693 8.80407 21.0401 8.84296 21.0353C8.96936 21.011 9.10062 20.9915 9.23188 20.9721C9.22701 20.938 9.21729 20.8991 9.21243 20.8651C9.03742 20.8894 8.85754 20.9089 8.68253 20.9332C8.48807 20.8019 8.28875 20.6658 8.09429 20.5345C8.07485 20.4859 8.07485 20.4227 8.04082 20.3887C7.85122 20.1942 7.65676 20.0095 7.4623 19.8248C7.4623 19.7713 7.4623 19.713 7.4623 19.6449C8.44918 19.3824 9.44578 19.1296 10.4764 19.1636C10.9042 19.1782 11.3369 19.256 11.7501 19.3678C12.0272 19.4407 12.28 19.6109 12.5328 19.7567C12.6009 19.7956 12.63 19.8977 12.6884 19.9949C12.9071 19.9755 13.3106 20.4811 13.2134 20.7193C13.437 20.7533 13.544 20.9623 13.4711 21.1179C13.5683 21.3124 13.6607 21.4485 13.7044 21.5992C13.9329 22.3381 13.9912 23.0917 13.753 23.8403C13.6121 24.2778 13.3495 24.6473 13.0044 24.9536C12.9412 25.0168 12.8245 25.0265 12.7321 25.0605Z" fill="#B9D9BC"/>
<path d="M39.8202 8.31789C39.8056 8.39567 39.7861 8.46859 39.7667 8.56096C39.5722 8.35678 39.4021 8.17691 39.2028 7.97273C39.3924 7.94842 39.5577 7.92897 39.7181 7.90953C39.7229 7.89494 39.7278 7.88036 39.7327 7.87063C39.6646 7.85119 39.5917 7.8123 39.5236 7.82202C39.2222 7.86091 39.0034 7.77341 38.7847 7.54492C37.3457 6.05245 35.6782 4.87112 33.8211 3.96689C32.0224 3.09183 30.1264 2.52304 28.1332 2.29455C26.1012 2.0612 24.0837 2.14385 22.0856 2.61541C21.8085 2.67861 21.5363 2.75153 21.2592 2.80987C21.1814 2.82445 21.0939 2.81473 21.0258 2.83417C20.9043 2.87306 20.7827 2.91196 20.6661 2.95571C20.4765 3.02863 20.2917 3.121 20.0973 3.1842C18.5367 3.71896 17.0832 4.47248 15.7414 5.43019C15.4594 5.62951 15.2067 5.8823 14.9004 6.02815C14.6816 6.13024 14.4094 6.23719 14.1469 6.10593C14.1031 6.08162 14.0788 6.01356 14.0302 5.93578C14.2392 5.96981 14.2295 5.96981 14.2392 5.80938C14.2441 5.76077 14.2976 5.71701 14.351 5.62951C14.3948 5.79966 14.4191 5.90175 14.4629 6.06704C14.5115 5.96495 14.5406 5.90175 14.5892 5.7948C14.5844 5.7948 14.6427 5.78507 14.6962 5.78021C14.7011 5.76077 14.7059 5.74132 14.7108 5.72187C14.633 5.69271 14.5552 5.65868 14.4094 5.6052C14.7691 5.38157 15.09 5.18225 15.4546 4.95863C15.5032 4.91001 15.5761 4.78848 15.6831 4.71555C16.8887 3.87452 18.1916 3.21823 19.5674 2.71264C20.9626 2.19732 22.4016 1.83271 23.8843 1.66743C25.1386 1.5313 26.4026 1.46811 27.6617 1.62853C28.4881 1.73549 29.3097 1.87161 30.1313 1.998C30.2042 2.00773 30.2674 2.07579 30.3355 2.11954C30.3695 2.13899 30.4084 2.18274 30.4327 2.17788C30.8459 2.05634 31.1862 2.31886 31.5606 2.39178C31.8571 2.45012 32.1439 2.57652 32.4308 2.68347C32.494 2.70778 32.5329 2.79042 32.5961 2.85848C32.8391 2.79042 33.7045 3.14531 33.7531 3.31546C33.9086 3.36407 34.0496 3.38352 34.1712 3.44185C35.231 3.93772 36.2032 4.56971 37.1464 5.25518C37.4332 5.46422 37.7054 5.68784 37.9777 5.92119C38.0457 5.97953 38.0798 6.08648 38.1284 6.17399C38.3131 6.08648 38.3666 6.28094 38.4638 6.38789C38.4833 6.4122 38.4638 6.4754 38.4833 6.48512C39.125 6.8157 39.509 7.41852 39.9855 7.91925C40.0535 7.98731 40.0292 8.1526 40.0243 8.26927C40.0195 8.28872 39.8931 8.3033 39.8202 8.31789Z" fill="#B9D9BC"/>
<path d="M23.4079 0.23345C23.7336 0.559167 24.0545 0.880023 24.3802 1.20574C24.0205 1.26408 23.6559 1.31755 23.2961 1.38561C22.6398 1.51201 21.9835 1.64813 21.3224 1.76967C21.2008 1.79398 21.0744 1.78425 20.948 1.79884C20.8362 1.80856 20.7001 1.73078 20.6466 1.93496C20.6272 2.00302 20.423 2.04677 20.3015 2.05649C20.1313 2.07594 19.9903 2.14886 19.8396 2.21692C18.9986 2.59611 18.1332 2.93155 17.3019 3.33505C16.7137 3.61702 16.1692 3.98649 15.6053 4.31221C15.5567 4.34137 15.4886 4.34137 15.406 4.36568C15.3768 4.40457 15.3233 4.5018 15.2407 4.56986C15.0803 4.70598 14.8712 4.79349 14.74 4.94906C14.5066 5.22616 14.2052 5.15324 13.9184 5.16296C13.8843 5.16296 13.8454 5.0949 13.8454 5.01712C13.9086 5.0317 13.9718 5.04142 14.0399 5.05601C14.0496 5.03656 14.0642 5.02198 14.0739 5.00253C14.0059 4.95392 13.9378 4.9053 13.8698 4.86155C13.967 4.83238 14.0691 4.79835 14.1809 4.76432C14.2733 4.78377 14.3802 4.80321 14.492 4.82266C14.5017 4.78863 14.5115 4.75946 14.5212 4.72543C14.283 4.78377 14.2635 4.37054 13.933 4.52611C14.0156 4.58445 14.0594 4.61848 14.1517 4.68168C13.9718 4.68168 13.8357 4.68168 13.6996 4.68168C13.6607 5.20185 13.6607 5.20185 14.2441 5.35742C14.1371 5.39631 14.0739 5.4352 14.0107 5.4352C13.9378 5.44006 13.8649 5.41089 13.792 5.39631C13.7677 5.43034 13.7434 5.46437 13.7142 5.4984C13.7628 5.52271 13.8163 5.55188 13.8892 5.59077C13.4808 5.96996 13.0579 6.35888 12.6204 6.76724C12.5863 6.67973 12.562 6.60681 12.5231 6.49986C12.6301 6.47555 12.7322 6.45124 12.8489 6.42208C12.8294 6.38318 12.8051 6.33943 12.7759 6.28109C12.8489 6.27137 12.9169 6.26651 12.9801 6.25679C12.985 6.22762 12.9898 6.19845 12.9996 6.16928C12.9169 6.15956 12.7759 6.10608 12.7565 6.14011C12.5717 6.40749 12.3141 6.33943 12.0613 6.32485C12.0321 6.32485 11.9981 6.33457 11.9689 6.33943C12.037 6.21303 12.105 6.08663 12.1877 5.93107C12.071 5.91648 12.003 5.90676 11.9495 5.9019C11.9203 6.01857 11.896 6.10608 11.8766 6.18873C11.8523 6.12066 11.8231 6.0526 11.7745 5.92621C11.9252 5.86787 12.0953 5.79981 12.2946 5.72203C12.2363 5.67341 12.1926 5.63938 12.1148 5.57618C12.2023 5.55674 12.2606 5.53243 12.319 5.53243C12.4842 5.52757 12.5912 5.50812 12.5717 5.2845C12.5523 5.02198 12.7905 5.16296 12.9169 5.11434C12.9121 5.04628 12.9072 4.97822 12.9023 4.9685C13.0676 4.80807 13.2037 4.67681 13.335 4.54556C13.3739 4.6282 13.4128 4.71571 13.4565 4.79835C13.476 4.79349 13.5003 4.78863 13.5197 4.78377C13.5343 4.71084 13.5538 4.63792 13.5683 4.565C13.651 4.54069 13.7434 4.51639 13.8357 4.48722C13.8309 4.46777 13.826 4.44346 13.826 4.42402C13.6947 4.42402 13.5683 4.42402 13.4371 4.42402C14.3365 3.70939 15.2844 3.07254 16.2859 2.50861C17.4429 1.85717 18.6583 1.33214 19.9271 0.948083C20.2431 0.850854 20.5591 0.680704 20.8751 0.690426C21.2932 0.709872 21.58 0.39874 21.9738 0.379294C22.3676 0.359848 22.7516 0.252896 23.1454 0.189697C23.2329 0.19942 23.3204 0.223727 23.4079 0.23345Z" fill="#B9D9BC"/>
<path d="M18.7457 28.5367C18.7943 28.5415 18.843 28.5561 18.8819 28.5415C19.2222 28.4054 19.5625 28.2644 19.9319 28.1089C19.9465 28.2839 19.9611 28.3957 19.9708 28.5172C20.0778 28.4978 20.175 28.4783 20.3014 28.454C20.1993 28.42 20.1264 28.4006 20.0535 28.3763C20.0535 28.352 20.0535 28.3228 20.0535 28.2985C20.2576 28.2839 20.4667 28.2693 20.6709 28.2644C20.6806 28.2644 20.6952 28.3665 20.7098 28.4346C20.7584 28.4346 20.8216 28.4346 20.8945 28.4346C20.8556 28.3033 20.8167 28.1818 20.7778 28.0505C21.5411 27.72 22.3286 27.4672 23.2474 27.472C23.1599 27.4477 23.1356 27.438 23.1113 27.4331C23.0919 27.4283 23.0724 27.4234 23.0481 27.4234C23.0433 27.3991 23.0433 27.3748 23.0384 27.3505C23.2669 27.3213 23.4905 27.2776 23.719 27.2727C23.9426 27.2678 24.1711 27.297 24.3947 27.3116C24.3996 27.2921 24.4045 27.2678 24.4045 27.2484C24.2927 27.2144 24.1857 27.1803 24.0155 27.1269C24.6281 26.9713 25.1872 26.8303 25.7559 26.6845C25.7657 26.7817 25.7754 26.8595 25.7803 26.9373C25.7948 26.9421 25.8046 26.947 25.8191 26.947C25.858 26.8449 25.8921 26.7428 25.9407 26.6067C26.2664 26.5678 26.6359 26.5289 27.0102 26.4851C26.9616 26.4754 26.913 26.4608 26.8644 26.4463C26.8644 26.4268 26.8595 26.4025 26.8595 26.3831C27.0783 26.3636 27.297 26.3587 27.5109 26.3296C27.6228 26.315 27.7637 26.4074 27.8512 26.1983C27.8901 26.1011 28.1283 26.0768 28.279 26.0428C28.8187 25.9066 29.3631 25.7851 29.9028 25.649C30.6223 25.4691 31.3369 25.2746 32.0515 25.0899C33.2426 24.7885 34.4336 24.4919 35.6247 24.1905C35.6733 24.1808 35.7171 24.1662 35.7657 24.1516C35.999 24.0739 36.2275 24.0009 36.4414 24.2197C36.4171 24.6086 36.247 24.7399 35.7705 24.7691C35.5178 24.7836 35.3038 24.8711 35.158 25.1288C34.317 26.6359 33.1843 27.8901 31.7015 28.7895C31.0501 29.1881 30.3452 29.509 29.6451 29.8104C29.2902 29.966 28.8867 30.0048 28.5075 30.1021C28.4541 30.1167 28.4054 30.1701 28.352 30.209C28.3082 30.141 28.2645 30.0778 28.2207 30.0097C28.2013 30.0146 28.1867 30.0243 28.1672 30.0292C28.1721 30.0924 28.177 30.1604 28.1818 30.2625C27.472 30.2674 26.7817 30.5882 25.999 30.3743C25.9212 30.3938 25.7803 30.4278 25.6344 30.4618C25.6296 30.4424 25.6247 30.4181 25.6198 30.3986C25.7025 30.3792 25.79 30.3597 25.9212 30.3306C25.7948 30.2917 25.7122 30.2625 25.5907 30.2236C26.665 30.1021 27.6859 29.9903 28.6291 29.8833C28.7701 29.8055 28.8478 29.7375 28.9353 29.7132C29.1395 29.6597 29.3534 29.6402 29.5527 29.577C29.7035 29.5284 29.8298 29.4166 29.9757 29.3485C30.7632 29.0034 31.5071 28.5804 32.1925 28.0603C32.2654 28.0068 32.3529 27.9776 32.4064 27.929C32.703 27.647 33.0092 27.3748 33.2912 27.0734C33.5829 26.7671 33.86 26.4511 34.1177 26.1205C34.3753 25.7851 34.5989 25.4205 34.8371 25.0705C34.8226 25.051 34.8128 25.0364 34.7983 25.017C34.385 25.1191 33.9718 25.2212 33.5634 25.3233C32.1439 25.683 30.7292 26.0476 29.3097 26.4025C28.7069 26.5532 28.1089 26.7039 27.5012 26.8303C27.2776 26.8789 27.0588 26.9227 26.8449 27.015C26.5532 27.1366 26.2324 27.2144 25.9018 27.1366C25.7948 27.1123 25.6782 27.1317 25.5566 27.1317C25.542 27.2046 25.5323 27.2727 25.5275 27.297C25.0851 27.4185 24.6718 27.5352 24.2538 27.6519C24.1906 27.3894 24.0253 27.2922 23.8065 27.3554C23.7239 27.3797 23.6461 27.438 23.5634 27.4526C23.4905 27.4672 23.4127 27.438 23.3349 27.4283C23.3301 27.4477 23.3301 27.4672 23.3252 27.4915C23.4176 27.4963 23.51 27.5109 23.6023 27.5109C23.6801 27.5109 23.7628 27.4769 23.8405 27.4769C23.9232 27.4769 24.001 27.5061 24.0836 27.5206C24.0544 27.6033 24.0253 27.6859 23.9767 27.8269C23.9524 27.7005 23.9426 27.6422 23.9329 27.5887C23.8892 27.6325 23.8503 27.6859 23.8065 27.7248C23.753 27.7686 23.6898 27.8026 23.6315 27.8415C23.6218 27.8221 23.612 27.7977 23.6023 27.7783C23.6412 27.7686 23.6752 27.7589 23.7141 27.7491C23.719 27.7345 23.7239 27.72 23.7287 27.7102C23.6218 27.6811 23.5148 27.6422 23.403 27.6227C23.3787 27.6179 23.3106 27.6811 23.3155 27.6957C23.4419 28.0165 23.1113 27.8852 23.0287 28.0505C23.0141 27.9436 23.0044 27.8901 22.9946 27.8123C22.8926 27.8707 22.805 27.9193 22.6884 27.9825C22.7613 27.9971 22.805 28.0019 22.8974 28.0214C22.1244 28.2207 21.3952 28.4103 20.666 28.595C20.6709 28.6145 20.6757 28.6388 20.6757 28.6582C20.7875 28.7068 20.8994 28.7555 21.0112 28.8041C21.0063 28.8235 21.0014 28.8381 20.9966 28.8575C20.7827 28.8381 20.5639 28.8186 20.35 28.7943C20.35 28.7798 20.35 28.7603 20.35 28.7457C20.4229 28.736 20.5007 28.7263 20.5736 28.7166C20.5736 28.702 20.5785 28.6923 20.5785 28.6777C20.4618 28.6291 20.3403 28.5804 20.2042 28.5221C20.1847 28.5804 20.1604 28.6388 20.141 28.702C20.1215 28.6923 20.1069 28.6825 20.0875 28.6777C19.9368 28.6047 19.7764 28.4881 19.6791 28.7457C19.6694 28.7652 19.6305 28.7798 19.6062 28.7846C19.3242 28.8332 19.0958 29.0714 18.7798 28.9985C18.7166 28.9839 18.6436 29.0277 18.5707 29.0423C18.561 29.0228 18.5464 29.0034 18.5367 28.9839C18.5027 29.0326 18.4638 29.086 18.42 29.1492C18.3957 29.1006 18.3763 29.0617 18.3665 29.0374C18.2499 29.0958 18.1429 29.1687 18.0214 29.2027C17.9193 29.2319 17.7443 29.261 17.7102 29.2124C17.647 29.1201 17.6616 28.9742 17.6422 28.8527C17.6665 28.8478 17.6908 28.843 17.7102 28.843C17.7345 28.9596 17.7637 29.0763 17.788 29.1881C17.8123 29.1881 17.8366 29.1833 17.8609 29.1833C17.8901 29.0812 17.9144 28.9839 17.9436 28.8721C18.0894 28.8964 18.2353 29.1103 18.3325 28.877C18.3665 28.7943 18.3179 28.6728 18.3033 28.5124C18.4054 28.5124 18.5707 28.5124 18.736 28.5124C18.6971 28.5561 18.6534 28.5999 18.6145 28.6436C18.5513 28.7263 18.4929 28.8089 18.4297 28.8916C18.4638 28.9159 18.4929 28.945 18.527 28.9694C18.5804 28.9159 18.6291 28.8575 18.6825 28.8041C18.6679 28.7895 18.6534 28.7798 18.6339 28.7652C18.7263 28.7409 18.8187 28.7214 18.9499 28.6874C18.8624 28.6339 18.8041 28.5853 18.7457 28.5367ZM25.2893 26.9956C25.1385 26.8109 25.0121 27.0248 24.8809 27.0734C24.842 27.088 24.842 27.2144 24.8226 27.2873C24.9635 27.2678 25.0365 27.229 25.1045 27.1803C25.1677 27.1269 25.2212 27.0637 25.2893 26.9956Z" fill="#B9D9BC"/>
<path d="M39.3584 6.64563C39.616 6.38797 39.8737 6.12545 40.1362 5.8678C40.2577 5.96503 40.3793 6.05739 40.4959 6.15462C40.4862 6.16921 40.4814 6.18379 40.4716 6.19352C40.4279 6.18865 40.3793 6.18865 40.2723 6.17893C40.7487 6.36853 40.9092 6.52896 40.8654 6.65535C40.9481 6.74286 41.0015 6.8012 41.0599 6.85953C41.1571 6.96162 41.2349 7.08802 41.3467 7.16581C41.5071 7.27762 41.6141 7.37971 41.4634 7.6082C41.5557 7.61792 41.6141 7.62278 41.6773 7.62764C41.6821 7.6082 41.687 7.58875 41.6919 7.56931C41.9058 7.70056 41.7064 7.81724 41.6578 7.96794C41.7502 7.90961 41.8231 7.86585 41.9058 7.81724C42.0322 7.98253 42.1683 8.12351 42.2606 8.29366C42.3725 8.5027 42.5183 8.54646 42.7322 8.49298C43.9184 8.18185 45.1095 7.88044 46.2957 7.57417C46.4609 7.53041 46.6262 7.49638 46.7867 7.45749C46.811 7.54014 46.8353 7.61792 46.8644 7.71515C46.952 7.65681 47.0103 7.61792 47.0735 7.57903C47.0443 7.53528 47.0152 7.4818 46.9714 7.41374C47.1124 7.45263 47.2242 7.4818 47.3603 7.52069C47.3555 7.55958 47.3555 7.62278 47.3457 7.71029C47.3895 7.68112 47.4235 7.6714 47.4235 7.66167C47.4332 7.51097 47.4527 7.3554 47.1804 7.37971C47.6374 7.17067 48.1041 7.18525 48.5562 7.01996C48.6048 7.21442 48.6486 7.39429 48.7118 7.63737C48.25 7.72001 47.8173 7.78321 47.3895 7.87558C47.2096 7.91447 47.0443 8.02628 46.8644 8.07004C45.4887 8.42006 44.108 8.76036 42.7322 9.11039C41.9738 9.30484 41.2154 9.50903 40.457 9.70348C40.1848 9.77154 39.9028 9.8153 39.6306 9.87363C39.5868 9.88336 39.548 9.91253 39.5042 9.91739C39.3778 9.93683 39.2514 9.94656 39.0764 9.97086C39.0472 9.99031 38.9743 10.0681 38.8819 10.0875C38.6194 10.1507 38.3472 10.1799 38.0798 10.2431C37.9437 10.2771 37.8173 10.3501 37.686 10.4035C37.3943 10.5202 37.1999 10.3598 37.02 10.1653C37.0054 10.1507 36.9908 10.1362 36.9811 10.1216C37.0006 10.0535 37.0006 9.94169 37.0346 9.93197C37.9874 9.68404 38.9403 9.44096 39.8931 9.20275C39.9709 9.18331 40.039 9.14928 40.1022 9.12983C40.0341 8.95968 39.9806 8.80411 39.9126 8.65341C39.7862 8.39089 39.9855 8.48326 40.0876 8.4784C40.1216 8.38117 40.1556 8.28394 40.1994 8.15754C40.3744 8.37631 40.5251 8.55618 40.6661 8.74092C40.8605 8.99371 40.8605 8.99371 41.2057 8.8187C40.8314 8.36658 40.4668 7.91933 40.0876 7.4818C39.8834 7.24359 39.6549 7.02482 39.441 6.79634C39.4021 6.74772 39.3827 6.69424 39.3584 6.64563ZM41.4828 8.83328C41.4925 8.85273 41.5023 8.87217 41.512 8.89162C41.8815 8.85273 41.9738 8.69716 41.7599 8.33742C41.7599 8.51729 41.7599 8.6291 41.7599 8.73605C41.653 8.77495 41.5703 8.80411 41.4828 8.83328ZM47.8708 7.56931C47.8708 7.545 47.8708 7.52069 47.8708 7.49638C47.7833 7.43805 47.6958 7.38457 47.5888 7.31165C47.5937 7.43805 47.5985 7.52069 47.6034 7.6325C47.7006 7.61306 47.7833 7.58875 47.8708 7.56931ZM41.3516 7.37485C41.2252 7.36026 41.1133 7.34082 40.9967 7.33596C40.9092 7.33596 40.7487 7.27762 40.8168 7.47208C40.9189 7.47208 41.0161 7.48666 41.1036 7.46722C41.196 7.45263 41.2786 7.40402 41.3516 7.37485ZM40.6175 8.99371C40.5932 9.02774 40.5689 9.06177 40.5446 9.0958C40.6466 9.15414 40.7487 9.21248 40.8508 9.26109C40.8557 9.26109 40.8946 9.18817 40.9189 9.14928C40.8168 9.10066 40.7196 9.04719 40.6175 8.99371Z" fill="#B9D9BC"/>
<path d="M25.9358 38.1962C25.8386 38.099 25.7414 38.0017 25.6442 37.9045C25.7025 37.8754 25.7608 37.8267 25.824 37.8267C26.3588 37.8073 26.8984 37.8462 27.4234 37.7733C28.4589 37.6323 29.4993 37.4816 30.5202 37.2482C31.8765 36.9371 33.16 36.412 34.3899 35.7606C34.6621 35.6148 34.9149 35.4397 35.192 35.3133C35.3184 35.255 35.4789 35.2745 35.6247 35.255C35.683 35.3717 35.7462 35.4884 35.8046 35.605C35.5518 35.7752 35.3087 35.9648 35.0413 36.1106C34.0302 36.6697 32.9849 37.1413 31.8863 37.4816C31.264 37.676 30.632 37.851 30 38.0066C29.5722 38.1136 29.1395 38.1816 28.7069 38.2448C28.2207 38.3177 27.7297 38.3809 27.2387 38.415C26.8741 38.4393 26.5046 38.4053 26.1352 38.3955C26.0671 38.3275 25.999 38.2643 25.9358 38.1962Z" fill="#B9D9BC"/>
<path d="M7.46236 19.825C7.65682 20.0146 7.85128 20.1993 8.04088 20.3889C8.07491 20.4229 8.07491 20.4861 8.09435 20.5348C8.06032 20.5591 8.02629 20.5785 7.99226 20.6028C7.78322 20.7973 7.57904 20.9917 7.37 21.1862C7.30194 21.123 7.23388 21.0598 7.1804 21.0112C7.16095 21.1279 7.14637 21.2299 7.14151 21.2688C6.9665 21.3029 6.85468 21.3272 6.68939 21.3563C6.8401 21.4439 6.93247 21.4925 7.02483 21.5459C7.01997 21.5557 7.01025 21.5654 7.00539 21.5751C6.73315 21.5946 6.46091 21.6043 6.20325 21.6869C6.20811 21.7112 6.21297 21.7355 6.21783 21.755C6.38312 21.755 6.54841 21.755 6.7137 21.755C6.70398 21.7987 6.69426 21.8376 6.68939 21.8765C6.61647 21.9543 6.54355 22.0321 6.47549 22.1099C6.42201 22.1196 6.36854 22.139 6.31506 22.1439C6.17894 22.1488 6.04768 22.1439 5.87753 22.1439C5.87267 22.139 5.83864 22.0807 5.79489 22.0175C5.74141 22.0904 5.74141 22.0904 5.95531 22.421C6.02824 22.3967 6.10116 22.3773 6.17894 22.3529C6.13519 22.421 6.09144 22.4842 6.04768 22.5523C6.00393 22.5863 5.96504 22.6155 5.92128 22.6495C5.82406 22.63 5.7171 22.6349 5.63446 22.5912C5.51778 22.5231 5.29416 22.5766 5.32333 22.3189C5.33305 22.246 5.23096 22.1633 5.15804 22.0467C5.06081 22.1585 4.97816 22.2557 4.88093 22.3675C4.86149 22.2946 4.85177 22.2411 4.83232 22.1731C4.79829 22.1974 4.76426 22.2217 4.71078 22.2557C4.56008 21.6578 4.41424 21.0744 4.26353 20.4716C4.76426 20.3403 5.24554 20.209 5.72683 20.0826C6.09144 19.9903 6.45118 19.8882 6.81579 19.8104C7.02483 19.7569 7.25332 19.6111 7.46236 19.825ZM5.95045 21.3272C5.63446 21.2445 5.67821 21.6772 5.44 21.6723C5.44 21.9203 5.44 22.1488 5.44 22.3821C5.46917 22.3821 5.49834 22.3821 5.52265 22.387C5.55181 22.1536 5.57612 21.9203 5.60529 21.6869C5.61988 21.6869 5.6296 21.6869 5.64418 21.6869C5.67335 21.7598 5.70252 21.8376 5.73169 21.9106C5.64904 21.6043 6.04768 21.7987 6.04768 21.5848C5.98935 21.6043 5.94073 21.6383 5.9067 21.6237C5.8435 21.5994 5.79489 21.5459 5.73655 21.5022C5.80947 21.4779 5.88239 21.4487 5.9699 21.4195C5.96504 21.3952 5.95045 21.3612 5.94073 21.3223C6.23242 21.298 6.52897 21.2737 6.82065 21.2494C6.81579 21.2154 6.81093 21.1813 6.80607 21.1473C6.70398 21.1619 6.59703 21.2056 6.49494 21.1911C6.23728 21.1667 5.98448 21.1181 5.73169 21.0792C5.67821 21.0695 5.6296 21.0452 5.57612 21.0355C5.44 21.0063 5.36708 21.0987 5.44 21.1911C5.49348 21.2591 5.64418 21.2494 5.75113 21.264C5.79489 21.2688 5.84836 21.2397 5.89212 21.2494C5.91642 21.2445 5.93101 21.298 5.95045 21.3272ZM4.71565 21.9494C4.96844 22.0661 5.0997 22.0321 5.09484 21.8668C5.08998 21.7258 5.04622 21.5897 5.02192 21.4439C4.90524 21.5216 4.81774 21.58 4.72537 21.6432C4.73509 21.6578 4.74481 21.6772 4.75454 21.6918C4.79829 21.6772 4.8469 21.6578 4.90524 21.6383C4.92955 21.7112 4.949 21.7793 4.97816 21.8522C4.8858 21.8862 4.81287 21.9154 4.71565 21.9494ZM6.53383 20.0875C6.32478 20.1313 6.13033 20.1702 5.93587 20.209C6.01851 20.2674 6.11574 20.2917 6.20325 20.2868C6.30048 20.282 6.39285 20.2431 6.51924 20.209C6.51924 20.1847 6.52897 20.1215 6.53383 20.0875ZM6.95677 20.9431C6.84982 20.8264 6.78176 20.7535 6.66995 20.632C6.66509 20.7681 6.66023 20.8653 6.6505 20.9626C6.75745 20.9577 6.85954 20.948 6.95677 20.9431Z" fill="#B9D9BC"/>
<path d="M45.8192 22.5474C45.5956 22.3238 45.372 22.105 45.1484 21.8814C45.1824 21.8425 45.2116 21.7744 45.2553 21.7647C45.8824 21.6189 46.5242 21.5071 47.1416 21.3272C47.4187 21.2494 47.6569 21.2057 47.9194 21.3126C47.9583 21.3272 48.0215 21.2786 48.1041 21.2494C48.0215 21.2105 47.9632 21.1862 47.9048 21.1571C47.9048 21.1376 47.9048 21.1133 47.9097 21.1084C48.1916 21.0501 48.4688 20.9966 48.7507 20.9432C48.7799 20.9383 48.8139 20.9188 48.8382 20.8994C48.9987 20.7779 49.1542 20.7293 49.2903 20.9626C49.3049 20.948 49.3195 20.9334 49.3341 20.9237C49.3147 20.8702 49.3001 20.8216 49.2758 20.7536C49.339 20.7487 49.4119 20.7438 49.5237 20.7341C49.4897 20.8022 49.4654 20.8313 49.4702 20.8508C49.4799 20.8994 49.4994 20.948 49.5188 20.9966C49.5529 20.9626 49.6161 20.9188 49.6112 20.8897C49.5674 20.6709 49.7084 20.6369 49.8737 20.598C50.5349 20.4327 51.196 20.2674 51.8767 20.1508C51.8232 20.1653 51.7746 20.1848 51.7794 20.1799C51.8621 20.3306 51.9496 20.4911 52.0614 20.6952C51.2495 20.88 50.5106 21.0452 49.7084 21.2251C49.6161 21.4244 49.3195 21.298 49.0667 21.4633C49.1153 21.3272 49.1396 21.2591 49.1639 21.1911C49.1494 21.1765 49.1299 21.1619 49.1153 21.1473C49.0716 21.2105 49.0278 21.2786 48.9792 21.3418C48.9743 21.3223 48.9695 21.3029 48.9646 21.2883C48.8382 21.3126 48.7118 21.3321 48.5903 21.3564C48.5903 21.3758 48.5951 21.3904 48.5951 21.4098C48.6583 21.4341 48.7167 21.4536 48.8334 21.4973C48.1916 21.6578 47.6083 21.8085 47.0006 21.9592C46.9811 21.9154 46.9568 21.8619 46.9325 21.8036C46.9131 21.8133 46.8985 21.8182 46.8888 21.8182C46.7915 21.8425 46.6992 21.8717 46.6019 21.8911C46.563 21.9008 46.495 21.8814 46.4901 21.896C46.3637 22.2071 46.0331 22.0126 45.9067 22.1099C45.8679 22.2995 45.8435 22.421 45.8192 22.5474ZM45.581 21.8619C45.6734 21.9154 45.7415 21.9932 45.8047 21.9883C45.9894 21.9738 46.004 21.8231 46.0137 21.6675C45.8776 21.7307 45.7609 21.7842 45.581 21.8619Z" fill="#B9D9BC"/>
<path d="M5.56151 17.9243C5.71221 18.0701 5.85806 18.2208 6.00876 18.3666C5.52262 18.5028 5.03647 18.6389 4.54547 18.7653C3.84542 18.9452 3.14051 19.1202 2.4356 19.2952C2.21683 19.3487 2.00293 19.4264 1.7793 19.4556C1.65776 19.4702 1.52651 19.3973 1.39039 19.3584C1.42442 19.2757 1.44872 19.2223 1.47789 19.1493C1.439 19.1445 1.38552 19.1348 1.38066 19.1396C1.34663 19.2563 1.31746 19.3778 1.28829 19.4945C1.3126 19.5188 1.34177 19.5431 1.36608 19.5674C1.15217 19.6063 0.93827 19.6501 0.724367 19.6792C0.661168 19.689 0.442403 19.757 0.369481 19.8008C0.340312 19.8154 0.26739 19.8105 0.262529 19.7959C0.23336 19.7376 0.213914 19.6647 0.209053 19.6015C0.204192 19.5723 0.243083 19.5383 0.262529 19.4994C0.175023 19.441 0.0972397 19.3876 -0.00971222 19.3146C0.272252 19.2563 0.252806 19.266 0.369481 19.4896C0.408372 19.5626 0.563939 19.5772 0.704921 19.6306C0.695198 19.5188 0.690336 19.4653 0.685475 19.3827C0.622276 19.4313 0.578523 19.4702 0.50074 19.5285C0.505601 19.3973 0.510463 19.2952 0.515324 19.2466C0.656306 19.266 0.792427 19.2806 0.962578 19.3049C0.933409 19.1882 0.913963 19.125 0.889656 19.0327C1.00633 19.0716 1.10356 19.1056 1.20565 19.1396C1.32719 18.9257 1.47789 18.882 1.67721 19.0181C1.67721 18.9597 1.67721 18.916 1.67721 18.8722C1.68693 18.8625 1.70152 18.8528 1.71124 18.8431C1.73555 18.8868 1.76958 18.9257 1.78416 18.9695C1.80361 19.0229 1.81819 19.0813 1.83764 19.1445C1.95917 19.091 2.0564 19.0473 2.1828 18.9938C2.06613 18.9549 1.97376 18.9257 1.88139 18.8966C1.88625 18.8722 1.89111 18.8528 1.89598 18.8285C2.22169 18.7361 2.55227 18.6438 2.87799 18.5562C3.21343 18.4639 3.54401 18.3715 3.87945 18.284C4.1371 18.2159 4.39962 18.1527 4.66214 18.0993C4.86146 18.0604 5.0705 18.0847 5.25524 17.9437C5.32816 17.9 5.45942 17.9291 5.56151 17.9243Z" fill="#B9D9BC"/>
<path d="M38.8624 25.8239C39.018 25.9989 39.1541 26.1155 39.2464 26.2662C39.3777 26.4704 39.5479 26.5288 39.7763 26.4947C39.9611 26.4656 40.1458 26.4656 40.384 26.4461C40.2576 26.6552 40.1653 26.835 40.0437 27.0003C39.9222 27.1656 39.9319 27.3212 40.0194 27.4913C40.1069 27.6615 40.1798 27.8414 40.2868 28.0698C40.0389 28.0164 39.8298 27.9823 39.6305 27.924C39.4603 27.8705 39.3339 27.8657 39.2027 28.0212C39.0666 28.1768 38.8916 28.2935 38.6971 28.4588C38.6679 28.1865 38.6533 27.9483 38.6144 27.715C38.5999 27.6323 38.5415 27.5399 38.4783 27.4962C38.2741 27.3552 38.0554 27.2337 37.8366 27.1073C38.0408 27.01 38.2353 26.9031 38.4443 26.8302C38.6193 26.767 38.6971 26.66 38.7214 26.485C38.7603 26.276 38.8089 26.0815 38.8624 25.8239Z" fill="#B9D9BC"/>
<path d="M19.0374 31.8426C18.9645 31.9641 18.9354 32.0322 18.8867 32.0857C18.527 32.4552 18.561 32.8441 18.8284 33.2476C18.8624 33.301 18.877 33.3642 18.9208 33.4712C18.6534 33.408 18.4346 33.3351 18.211 33.3059C18.1089 33.2913 17.9728 33.3254 17.8902 33.3886C17.7054 33.5247 17.5401 33.69 17.3359 33.8796C17.3165 33.6316 17.2922 33.4274 17.2873 33.2233C17.2825 33.0434 17.2144 32.9219 17.0491 32.8343C16.8498 32.7323 16.6602 32.6156 16.4463 32.4892C16.5873 32.4308 16.6942 32.3579 16.8061 32.3385C17.2679 32.2656 17.4089 31.9496 17.438 31.5363C17.4429 31.4829 17.4526 31.4245 17.4672 31.371C17.4721 31.3419 17.4915 31.3176 17.5255 31.2495C17.6908 31.4342 17.8464 31.5898 17.9777 31.7648C18.07 31.8912 18.1575 31.9398 18.3228 31.9058C18.5416 31.8621 18.7652 31.8621 19.0374 31.8426Z" fill="#B9D9BC"/>
<path d="M11.6286 13.3834C11.8814 13.2716 12.1099 13.189 12.3238 13.0772C12.4065 13.0334 12.4891 12.9313 12.5183 12.8389C12.5863 12.625 12.6204 12.4014 12.6787 12.134C12.8634 12.3382 13.0141 12.5278 13.1892 12.698C13.2524 12.7563 13.3642 12.7952 13.4517 12.7952C13.6948 12.7903 13.933 12.7563 14.2149 12.732C14.074 12.9605 13.9621 13.1598 13.8357 13.3543C13.758 13.4709 13.7385 13.573 13.8114 13.7091C13.9184 13.9036 13.9913 14.1175 14.0983 14.3606C13.8406 14.3071 13.617 14.2779 13.3982 14.2147C13.2426 14.171 13.1405 14.2099 13.0287 14.3168C12.8732 14.4675 12.7079 14.6036 12.5183 14.7641C12.4891 14.5064 12.4502 14.2828 12.4454 14.0592C12.4405 13.8987 12.3676 13.8112 12.2363 13.7383C12.037 13.6265 11.8474 13.5098 11.6286 13.3834Z" fill="#B9D9BC"/>
<path d="M33.8649 9.32924C33.8649 8.99866 33.8649 8.67294 33.8649 8.34236C33.8406 8.32778 33.8163 8.30833 33.792 8.29375C33.7677 8.33264 33.7433 8.37153 33.719 8.41529C33.5003 8.28403 33.2669 8.13818 33.0044 7.97776C33.2232 7.88539 33.4079 7.78816 33.6024 7.72982C33.8065 7.66662 33.8746 7.5305 33.9038 7.34091C33.9329 7.15131 33.9816 6.96657 34.0253 6.77698C34.2781 7.0006 34.4872 7.27285 34.7643 7.39924C34.9685 7.49647 35.2602 7.4041 35.513 7.39924C35.4643 7.48675 35.4206 7.62287 35.3282 7.7201C35.0414 8.04095 35.1386 8.34723 35.3185 8.66322C35.3574 8.73128 35.3866 8.8042 35.4255 8.89171C34.808 8.72642 34.2733 8.76045 33.9135 9.39244C33.8989 9.36813 33.8795 9.34868 33.8649 9.32924Z" fill="#B9D9BC"/>
<path d="M27.0151 33.2667C27.3311 33.1986 27.511 33.3056 27.6957 33.5341C27.9291 33.8258 28.2353 34.064 28.5319 34.3508C28.4638 33.923 28.3958 33.5049 28.3277 33.082C28.6583 32.9313 28.6923 32.9507 28.7701 33.3056C28.8673 33.7771 28.9743 34.2536 29.0715 34.7251C29.1007 34.8564 29.1444 34.9974 28.9743 35.08C28.8236 35.1578 28.6826 35.1578 28.5562 35.0314C28.2694 34.7446 27.9825 34.4626 27.7006 34.1709C27.652 34.1223 27.6228 34.0542 27.5839 33.9959C27.5596 34.0105 27.5353 34.0251 27.511 34.0397C27.5548 34.4432 27.5985 34.8467 27.6423 35.2793C27.4964 35.3036 27.3652 35.3231 27.1853 35.3474C27.1318 34.6473 27.0735 33.957 27.0151 33.2667Z" fill="#B9D9BC"/>
<path d="M36.9762 10.1071C36.9908 10.1217 37.0054 10.1363 37.0151 10.1509C37.0492 10.2578 37.0783 10.3599 37.0978 10.4231C36.8985 10.5106 36.7235 10.603 36.5387 10.6613C36.3102 10.7342 36.0769 10.7877 35.8435 10.8412C35.3428 10.9579 34.8372 11.0697 34.3316 11.1815C34.3219 11.0988 34.3316 10.9579 34.3024 10.9481C34.2101 10.9238 34.1031 10.9433 34.0059 10.9579C33.9865 10.9627 33.9767 11.0211 33.9573 11.0648C34.0934 11.1086 34.2198 11.1426 34.3413 11.1815C34.1129 11.2544 33.8892 11.3273 33.6267 11.41C33.6267 11.2252 33.6267 11.0891 33.6267 10.953C33.6073 10.953 33.5878 10.953 33.5732 10.953C33.5684 11.0308 33.5586 11.1037 33.5489 11.1961C33.4663 11.2058 33.3836 11.2155 33.301 11.2252C33.1989 11.5558 33.0288 11.6385 32.4989 11.6336C32.4697 11.4294 32.5086 11.1718 32.0954 11.1961C32.5621 10.9384 32.9947 11.1232 33.4225 11.0648C33.3885 10.9822 33.3642 10.919 33.3302 10.8363C33.5003 10.8363 33.6656 10.8363 33.8649 10.8363C33.8746 10.812 33.9038 10.7488 33.9184 10.7197C34.39 10.671 34.8421 10.4134 35.3039 10.7051C35.3282 10.6565 35.3622 10.6176 35.3525 10.5933C35.2942 10.428 35.2261 10.2967 35.5227 10.3599C35.6296 10.3794 35.7609 10.2335 35.8873 10.2043C36.1984 10.1363 36.5144 10.0925 36.8255 10.0439C36.8693 10.0391 36.9276 10.0877 36.9762 10.1071Z" fill="#B9D9BC"/>
<path d="M35.9893 31.3661C35.9941 31.9786 35.5128 32.4599 34.9052 32.4599C34.3023 32.4599 33.8259 31.9592 33.821 31.3272C33.8113 30.7195 34.2829 30.3014 34.8711 30.2771C35.4448 30.2577 35.9893 30.8021 35.9893 31.3661ZM34.9635 32.0321C35.3087 32.0321 35.5566 31.7744 35.5517 31.4293C35.542 31.0306 35.1968 30.6952 34.7982 30.7001C34.4822 30.7001 34.2391 30.9626 34.244 31.3029C34.2537 31.6918 34.5892 32.0321 34.9635 32.0321Z" fill="#B9D9BC"/>
<path d="M16.631 7.90469C16.772 7.80746 16.8887 7.71995 17.0102 7.63245C17.404 8.21582 17.7929 8.78461 18.177 9.3534C17.8804 9.61592 17.8707 9.61106 17.6665 9.33881C17.5839 9.227 17.5012 9.11519 17.4186 9.00824C17.4089 8.99851 17.3943 8.99365 17.3505 8.96448C17.1512 9.11519 16.9422 9.27562 16.7283 9.4409C16.9081 9.66939 17.0686 9.87843 17.2436 10.1069C17.1366 10.1944 17.0442 10.2674 16.9276 10.3597C16.4998 9.85413 16.0817 9.36798 15.6636 8.87698C15.7317 8.74086 15.79 8.61446 15.8775 8.43459C16.0865 8.67766 16.2713 8.89156 16.4755 9.12491C16.6748 8.97907 16.8741 8.84295 17.0637 8.68252C17.0929 8.65821 17.0783 8.53181 17.0394 8.47834C16.9227 8.2936 16.7769 8.10887 16.631 7.90469Z" fill="#B9D9BC"/>
<path d="M22.9655 5.99412C23.1308 5.72187 23.2864 5.50797 23.3933 5.26976C23.5343 4.95862 23.7725 4.91973 24.0885 4.96349C23.9087 5.25031 23.7482 5.52742 23.5684 5.78994C23.4808 5.91633 23.5003 5.99412 23.6024 6.10107C23.8746 6.38303 24.1323 6.67958 24.4045 6.97613C24.1226 7.1317 23.9232 7.09767 23.7385 6.8546C23.6072 6.67958 23.4225 6.5386 23.2572 6.37817C23.0044 6.65528 23.194 6.93724 23.1989 7.21921C23.0871 7.25324 22.9704 7.28727 22.8391 7.3213C22.6641 6.63583 22.494 5.95522 22.319 5.25031C22.4745 5.22114 22.6058 5.19684 22.7614 5.16281C22.8294 5.43019 22.8926 5.68298 22.9655 5.99412Z" fill="#B9D9BC"/>
<path d="M41.123 22.8828C40.8897 23.1113 40.6563 23.3398 40.423 23.5683C40.0778 23.6752 39.7375 23.7919 39.3923 23.8843C38.8624 24.0252 38.3277 24.1565 37.7929 24.278C37.686 24.3023 37.5644 24.2634 37.3943 24.2537C37.3943 24.2537 37.3554 24.3169 37.3019 24.3947C37.3019 24.2343 37.3019 24.0982 37.3019 23.9572L37.2922 23.9669C37.3943 23.9377 37.5158 23.9523 37.5207 23.7773C37.5207 23.7336 37.6665 23.6655 37.7492 23.6558C38.002 23.6266 38.2402 23.5877 38.4832 23.4905C38.8333 23.3544 39.227 23.3349 39.5965 23.2377C40.034 23.1259 40.4619 22.9849 40.8945 22.8634C40.9723 22.8439 41.0501 22.8731 41.123 22.8828Z" fill="#B9D9BC"/>
<path d="M21.7744 10.6026C21.8425 10.5978 21.9154 10.5929 21.9835 10.5832C21.9835 10.5735 21.9835 10.5637 21.9835 10.554C21.8765 10.554 21.7744 10.554 21.6675 10.554C21.5605 10.977 20.9285 11.2881 20.3063 11.1957C20.598 11.0256 20.8556 10.8749 21.1181 10.729C21.157 10.7047 21.2397 10.7533 21.2737 10.7242C21.3564 10.661 21.5605 10.7776 21.5411 10.5491C21.5411 10.5248 21.6043 10.4859 21.6432 10.4714C22.071 10.3207 22.5182 10.2088 22.9266 10.0193C23.5003 9.75187 24.1177 9.69839 24.7254 9.59144C25.0657 9.53311 25.4205 9.49421 25.7657 9.52338C26.1692 9.55741 26.5727 9.46018 26.9713 9.55255C27.054 9.572 27.1318 9.63033 27.1998 9.68867C27.2241 9.71298 27.2339 9.7859 27.2193 9.81507C27.195 9.8491 27.1366 9.87827 27.0929 9.87827C26.8304 9.86855 26.5533 9.89285 26.3005 9.82965C25.897 9.72756 25.5129 9.86855 25.1191 9.87341C24.7108 9.88313 24.3024 9.98522 23.8989 10.0581C23.5829 10.1165 23.2621 10.1651 22.9558 10.2575C22.6835 10.3401 22.4356 10.4859 22.1731 10.5929C22.0515 10.6415 21.9203 10.6658 21.7939 10.6999C21.7842 10.6707 21.7793 10.6367 21.7744 10.6026Z" fill="#B9D9BC"/>
<path d="M26.7185 35.3718C26.2956 35.4447 26.2956 35.4447 26.1157 35.0704C26.0963 35.0266 26.0622 34.9634 26.0331 34.9634C25.7706 34.9489 25.5129 34.9391 25.2504 34.9489C25.1969 34.9489 25.1337 35.0218 25.1045 35.0801C24.9149 35.4447 24.9198 35.4496 24.4774 35.3475C24.6378 35.0121 24.7983 34.6766 24.9538 34.346C25.09 34.0495 25.2164 33.7432 25.3622 33.4467C25.3962 33.3786 25.4935 33.3008 25.5664 33.3008C25.6636 33.296 25.8143 33.3349 25.8483 33.4029C26.14 34.0106 26.4171 34.628 26.6942 35.2454C26.7137 35.2746 26.7088 35.3183 26.7185 35.3718ZM25.7949 34.7884C25.9504 34.5745 25.9213 34.4676 25.6004 33.9231C25.5178 34.137 25.4448 34.3315 25.3622 34.5454C25.5275 34.5551 25.6587 34.5648 25.7949 34.5745C25.7949 34.6523 25.7949 34.7204 25.7949 34.7884Z" fill="#B9D9BC"/>
<path d="M35.44 29.5817C35.5469 29.4893 35.6344 29.4067 35.7317 29.3241C36.0039 29.5963 36.2713 29.8685 36.5387 30.1311C36.597 30.1894 36.6554 30.2429 36.7234 30.2866C36.9325 30.4227 37.1366 30.3984 37.2873 30.2234C37.4089 30.0824 37.4186 29.8102 37.2825 29.6644C37.0929 29.4553 36.879 29.2657 36.6797 29.0713C36.5678 28.9643 36.4609 28.8574 36.3296 28.7358C36.4171 28.6289 36.4949 28.5268 36.597 28.4004C36.9665 28.7456 37.3408 29.047 37.6519 29.4018C37.9679 29.7616 37.8756 30.2623 37.4964 30.588C37.1172 30.9186 36.6554 30.904 36.3005 30.5491C36.2567 30.5054 36.213 30.4568 36.1692 30.4082C35.9407 30.1359 35.7025 29.8734 35.44 29.5817Z" fill="#B9D9BC"/>
<path d="M18.527 9.12986C18.4541 8.73608 18.3763 8.3423 18.3034 7.9388C18.4347 7.93394 18.5319 7.92908 18.6243 7.92422C18.0214 7.84644 18.284 7.34084 18.1916 7.0443C18.1187 6.80609 18.4444 6.84012 18.5708 6.67969C19.1493 7.19014 19.7132 7.69087 20.282 8.19646C20.0487 8.39578 19.8493 8.43953 19.6646 8.19646C19.65 8.17701 19.6306 8.15757 19.6111 8.14785C19.3292 8.0652 19.159 8.30341 18.9403 8.39578C18.8722 8.42495 18.7993 8.59996 18.8284 8.66316C18.9646 8.97915 18.7847 9.0618 18.527 9.12986ZM18.7361 8.03603C18.9014 7.94853 19.0326 7.8756 19.1979 7.78324C19.0278 7.64226 18.8771 7.51586 18.7312 7.39432C18.7118 7.40891 18.6923 7.41863 18.6729 7.43321C18.6923 7.62281 18.7118 7.81241 18.7361 8.03603Z" fill="#B9D9BC"/>
<path d="M30.2918 7.32618C30.2188 7.20951 30.1459 7.13658 30.1167 7.04908C30.0584 6.84976 29.9709 6.64072 30.0001 6.44626C30.0535 6.04276 30.1702 5.64412 30.2675 5.21631C30.3793 5.24062 30.4716 5.2552 30.5591 5.27951C30.6904 5.30868 30.7196 5.38646 30.6807 5.51286C30.5835 5.83858 30.5154 6.16915 30.4084 6.49001C30.3161 6.77198 30.4619 7.07825 30.6515 7.12686C30.9043 7.19006 31.1474 7.04908 31.2544 6.73308C31.3808 6.36847 31.4974 5.999 31.6287 5.60036C31.7794 5.65384 31.9155 5.69759 32.0857 5.75593C31.9107 6.21777 31.7551 6.6553 31.5801 7.08797C31.4391 7.43313 31.1085 7.51092 30.7828 7.54981C30.7099 7.55953 30.6272 7.45744 30.5446 7.41855C30.4425 7.36993 30.3355 7.34077 30.2918 7.32618Z" fill="#B9D9BC"/>
<path d="M43.6656 20.3648C43.9184 20.1023 44.1663 19.8349 44.4191 19.5724C44.5844 19.3974 44.7546 19.2223 44.9199 19.0473C45.0852 19.1008 45.2164 19.1154 45.197 18.8723C45.1921 18.8334 45.2359 18.7945 45.2602 18.7508C45.44 18.5563 45.6199 18.3619 45.7998 18.1723C45.829 18.2452 45.8581 18.3181 45.8873 18.3959C45.9408 18.3667 45.9991 18.3376 46.004 18.3327C46.0088 18.1869 46.0137 18.0848 46.0185 17.9778C46.0283 17.9632 46.038 17.9438 46.0477 17.9292C46.0769 18.0021 46.1061 18.0799 46.1401 18.1723C46.2033 17.9875 46.2568 17.8368 46.3102 17.6813C46.4172 17.5695 46.529 17.4576 46.636 17.3458C46.6214 17.5257 46.636 17.7202 46.4755 17.7736C46.3977 18.0021 46.3297 18.2014 46.2616 18.4056C46.247 18.391 46.2373 18.3765 46.2227 18.3619C46.1498 18.4008 46.0769 18.4445 46.0331 18.4688C46.0429 18.5612 46.0866 18.6536 46.0574 18.6973C45.4789 19.5286 44.7303 20.146 43.7774 20.5009C43.7385 20.4572 43.7045 20.4085 43.6656 20.3648Z" fill="#B9D9BC"/>
<path d="M27.1415 12.732C27.0394 12.698 26.9373 12.6639 26.8352 12.6299C27.1075 12.5132 27.3846 12.3965 27.6762 12.275C27.7054 12.3722 27.7297 12.4452 27.754 12.5181C27.8172 12.4111 27.861 12.2653 27.9485 12.2215C28.0311 12.1826 28.1672 12.2507 28.2985 12.275C28.2936 12.2264 28.2888 12.1778 28.2839 12.1097C28.4541 12.0806 28.6194 12.0368 28.7847 12.0319C28.9111 12.0271 29.0375 12.0708 29.1784 12.134C29.052 12.1535 28.9256 12.1681 28.7992 12.1875C28.7944 12.207 28.7944 12.2215 28.7895 12.241C28.9208 12.2556 29.0909 12.3236 29.1784 12.2653C29.2854 12.1972 29.3194 12.0222 29.3923 11.8861C29.4021 11.9201 29.4215 11.9833 29.4507 12.0757C29.5868 11.9833 29.7181 11.891 29.8542 11.7986C29.9952 11.8229 30.1702 11.8521 30.3549 11.8861C30.248 11.9785 30.1313 12.1 29.9952 12.1972C29.4701 12.5813 28.8284 12.6056 28.2256 12.7514C28.1818 12.7612 28.1429 12.7952 28.1235 12.8049C28.002 12.7514 27.8999 12.7077 27.7929 12.6639C27.7832 12.6882 27.7735 12.7125 27.7637 12.7369C27.8221 12.7612 27.8804 12.7855 27.9436 12.8098C27.9436 12.8292 27.9436 12.8487 27.9436 12.8681C27.754 12.8876 27.5596 12.9119 27.3651 12.9362C27.3651 12.8146 27.3651 12.7125 27.3651 12.6056C27.3165 12.5716 27.2727 12.5375 27.2241 12.5035C27.195 12.5813 27.1658 12.6591 27.1366 12.7369C27.1318 12.7369 27.1415 12.732 27.1415 12.732Z" fill="#B9D9BC"/>
<path d="M25.3282 4.82746C25.7122 4.70592 25.7754 4.72537 25.9699 5.02678C26.0233 5.10942 26.072 5.19207 26.1206 5.27471C26.1692 5.35736 26.2129 5.44 26.281 5.56154C26.3928 5.35736 26.4998 5.19693 26.5776 5.02678C26.6991 4.74967 26.9033 4.70592 27.195 4.79829C26.8692 5.45945 26.2907 6.02824 26.4998 6.86441C26.3977 6.87413 26.3442 6.88385 26.2907 6.88872C26.2373 6.88872 26.1789 6.87899 26.072 6.87413C26.2713 6.0331 25.7122 5.47403 25.3282 4.82746Z" fill="#B9D9BC"/>
<path d="M14.6232 10.1362C14.492 10.3015 14.3753 10.4571 14.2538 10.6127C14.1177 10.5057 14.0253 10.4279 13.9038 10.3307C14.3218 9.92233 14.7302 9.52369 15.1531 9.11047C15.2455 9.2077 15.3281 9.30007 15.3768 9.34868C15.2309 9.49453 15.0948 9.63064 14.9101 9.81538C15.3768 10.2383 15.7948 10.6175 16.2567 11.0356C16.0865 11.1523 15.9796 11.2203 15.8629 11.303C15.4837 10.9529 15.0753 10.564 14.6232 10.1362Z" fill="#B9D9BC"/>
<path d="M21.3223 7.13164C21.089 6.99552 20.8556 6.85454 20.6223 6.72328C20.5688 6.69411 20.5056 6.67953 20.457 6.66008C20.5542 6.86426 20.6466 7.03928 20.7292 7.21915C20.7827 7.34555 20.8119 7.47681 20.8653 7.60321C21.0015 7.92892 21.0063 7.92892 20.6369 8.05532C20.3646 7.42333 20.0924 6.79134 19.8201 6.16421C20.0486 5.94059 20.1653 5.92114 20.4132 6.08157C20.773 6.31492 21.123 6.55313 21.4779 6.79134C21.5119 6.81565 21.5362 6.86426 21.5605 6.90316C21.4779 6.97608 21.4001 7.05386 21.3223 7.13164Z" fill="#B9D9BC"/>
<path d="M22.6787 34.9197C22.3724 34.7253 22.3092 34.594 22.3773 34.2537C22.4599 33.8453 22.5523 33.437 22.6495 32.9849C22.7759 33.014 22.9606 33.0092 22.9947 33.0772C23.0579 33.1988 23.0238 33.3397 22.878 33.4661C22.6981 33.6217 22.9266 34.1079 23.1891 34.1176C23.4468 34.1273 23.7093 34.0641 23.967 33.9815C23.8892 33.9426 23.8163 33.9037 23.7385 33.8696C23.7968 33.8259 23.8503 33.7821 23.9329 33.7189C23.8746 33.7044 23.8211 33.6898 23.7531 33.6703C23.7774 33.5196 23.8065 33.3641 23.8308 33.2134C24.2003 33.189 24.21 33.189 24.176 33.5293C24.1614 33.68 24.0934 33.821 24.069 33.9717C24.0593 34.0301 24.1274 34.0933 24.1274 34.1565C24.1274 34.2683 24.1079 34.385 24.0447 34.419C23.9378 34.419 23.826 34.3995 23.7287 34.4238C23.5148 34.4773 23.2426 34.3995 23.1502 34.244C23.0481 34.2829 22.9461 34.3218 22.8099 34.3704C22.7808 34.5259 22.7321 34.7204 22.6787 34.9197Z" fill="#B9D9BC"/>
<path d="M30.2139 33.933C30.2042 34.1032 30.1458 34.2782 30.1847 34.4338C30.2771 34.8129 30.2771 34.8373 29.8299 34.8859C29.7132 34.4338 29.5916 33.9768 29.475 33.5198C29.4312 33.3496 29.3875 33.1746 29.3437 33.0045C29.3097 32.8732 29.3583 32.8198 29.4944 32.7906C29.6305 32.7614 29.7132 32.7809 29.7424 32.9316C29.7764 33.1114 29.8104 33.2913 29.8542 33.4663C29.859 33.4955 29.8979 33.5198 29.9174 33.5441C29.9514 33.5149 29.9951 33.4906 30.0097 33.4566C30.1215 33.2135 30.2236 32.9656 30.3403 32.6982C30.3452 32.7517 30.35 32.8003 30.3549 32.8489C30.3792 32.8538 30.3986 32.8635 30.4229 32.8684C30.457 32.7371 30.4959 32.6058 30.5348 32.4697C30.5931 32.5426 30.6514 32.6058 30.7146 32.6836C30.6952 32.6934 30.6514 32.7079 30.6125 32.7274C30.6806 32.9461 30.5591 33.3253 30.3597 33.5101C30.3938 33.5538 30.4278 33.5927 30.457 33.6365C30.3743 33.7337 30.2965 33.8309 30.2139 33.933Z" fill="#B9D9BC"/>
<path d="M32.9023 32.2993C32.9266 32.1729 32.9509 32.0514 32.9752 31.9153C33.0287 31.9007 33.0968 31.8861 33.2037 31.8569C32.7224 31.575 32.9023 31.3805 33.2766 31.1909C33.3787 31.925 33.1745 32.7223 33.7871 33.3251C33.6267 33.4223 33.5051 33.4952 33.3641 33.5828C33.2134 33.3154 33.0773 33.0674 32.9363 32.8195C32.912 32.7806 32.878 32.7466 32.8391 32.7174C32.5085 32.4792 32.178 32.241 31.8377 31.9979C32.0467 31.7889 32.2217 31.75 32.4307 31.9542C32.562 32.0806 32.7273 32.1729 32.9023 32.2993Z" fill="#B9D9BC"/>
<path d="M29.4214 6.23241C29.4797 6.51437 29.261 6.35395 29.1054 6.41715C29.2124 6.45118 29.2756 6.47062 29.3485 6.49007C29.2658 6.68939 29.1006 6.83037 28.8964 6.9276C28.8721 6.93732 28.8332 6.90815 28.804 6.90815C28.7262 6.90329 28.6339 6.87412 28.5755 6.90329C28.2838 7.04914 28.0505 7.03455 27.7977 6.81093C27.506 6.54841 27.3699 6.21782 27.3991 5.81918C27.4088 5.66848 27.5012 5.68792 27.5935 5.6782L27.5887 5.67334C27.5692 5.92614 27.788 5.68306 27.8366 5.80946C27.8269 6.27616 27.929 6.62133 28.7797 6.72828C28.7214 6.50951 28.8526 6.42201 28.979 6.39284C29.0276 6.21783 29.0617 6.07198 29.1006 5.931C29.2075 6.02823 29.3145 6.13032 29.4214 6.23241Z" fill="#B9D9BC"/>
<path d="M25.3671 30.2432C25.2699 30.253 25.1775 30.2627 25.0803 30.2773C25.0754 30.2967 25.0706 30.3113 25.0657 30.3308C25.2164 30.3551 25.3671 30.3794 25.513 30.4037C25.5081 30.428 25.5032 30.4523 25.5032 30.4766C25.2553 30.4523 24.9977 30.4426 24.7546 30.3988C24.3316 30.321 23.9135 30.2141 23.4906 30.1217C23.3496 30.0925 23.2086 30.078 23.0677 30.0488C22.7954 29.9953 22.5183 29.9516 22.5183 29.587C22.7662 29.5675 24.074 29.9905 24.1129 30.078C24.5553 29.9807 24.9636 30.1266 25.3817 30.1509C25.372 30.18 25.372 30.2092 25.3671 30.2432Z" fill="#B9D9BC"/>
<path d="M29.4215 6.23236C29.3145 6.13027 29.2076 6.02818 29.1006 5.93095C29.0472 5.65385 28.984 5.38161 28.668 5.27952C28.5707 5.25035 28.4735 5.22118 28.3714 5.19201C28.2936 5.11423 28.2207 5.03645 28.1429 4.95866C28.1721 4.92463 28.1916 4.8663 28.2256 4.86144C28.9159 4.77393 29.6257 5.22604 29.5284 6.06221C29.5139 6.12055 29.4555 6.17402 29.4215 6.23236Z" fill="#B9D9BC"/>
<path d="M27.7735 9.98077C27.861 9.90299 27.8999 9.86896 27.9583 9.82034C27.8367 9.8009 27.7444 9.78631 27.6131 9.76687C27.6569 9.83493 27.6812 9.87868 27.7249 9.94674C27.6277 9.94674 27.5499 9.97105 27.4916 9.94188C27.4332 9.90785 27.37 9.83493 27.3554 9.77173C27.3263 9.64047 27.4235 9.59672 27.5353 9.62103C28.0506 9.73284 28.5708 9.84465 29.0861 9.97105C29.1445 9.98563 29.1882 10.0731 29.2417 10.1266C29.1834 10.1461 29.125 10.1655 29.0667 10.1801C28.6292 10.287 28.2548 10.0099 27.7735 9.98077Z" fill="#B9D9BC"/>
<path d="M21.6626 6.7914C21.5994 6.65528 21.5216 6.52402 21.473 6.38304C21.3806 6.13025 21.3029 5.86773 21.2153 5.58576C21.3563 5.53715 21.4827 5.49826 21.6723 5.43506C21.7501 5.80939 21.8327 6.17886 21.9105 6.54347C21.823 6.62611 21.7404 6.70876 21.6626 6.7914Z" fill="#B9D9BC"/>
<path d="M30.2139 33.9329C30.2917 33.8357 30.3743 33.7336 30.4521 33.6363C30.5153 33.6412 30.5931 33.6218 30.6369 33.6558C30.9431 33.8746 31.2397 34.0982 31.5411 34.3267C31.2591 34.5552 31.123 34.5552 30.841 34.3607C30.6417 34.21 30.4278 34.0739 30.2139 33.9329Z" fill="#B9D9BC"/>
<path d="M21.6627 6.79139C21.7453 6.70875 21.8231 6.6261 21.9058 6.54346C21.9447 6.60666 21.9981 6.66499 22.0224 6.72819C22.1002 6.96154 22.1683 7.19976 22.2412 7.42825C21.9009 7.63729 21.5849 7.52548 21.3272 7.12684C21.405 7.04905 21.4828 6.97127 21.5606 6.89348C21.5898 6.86432 21.6238 6.83028 21.6627 6.79139Z" fill="#B9D9BC"/>
<path d="M21.3126 33.6119C21.2688 33.7383 21.4098 33.9279 21.2202 33.9765C21.2105 34.1369 21.2056 34.2828 21.1959 34.4578C21.1035 34.4383 21.0501 34.4237 20.9869 34.4092C20.9626 34.4967 20.9334 34.589 20.9091 34.6765C20.6271 34.6668 20.5931 34.6085 20.7 34.3605C20.7681 34.205 20.8167 34.0348 20.8605 33.8696C20.9237 33.6216 21.0841 33.5438 21.3174 33.5925L21.3126 33.6119Z" fill="#B9D9BC"/>
<path d="M21.3126 33.612L21.3175 33.5926C21.2883 33.5488 21.2543 33.5051 21.2251 33.4662C21.1717 33.3932 21.0744 33.3106 21.0793 33.2425C21.0842 33.1793 21.2057 33.1259 21.3126 33.0432C21.1765 32.9849 21.0161 32.9168 20.8605 32.8536C20.8702 32.8439 20.88 32.8342 20.8897 32.8196C21.0453 32.8439 21.196 32.8633 21.3515 32.8877C21.3564 32.8633 21.3661 32.839 21.371 32.8147C21.405 32.8779 21.439 32.9411 21.4731 33.0092C21.4925 33.0043 21.512 32.9995 21.5314 32.9897C21.5265 32.9265 21.5217 32.8682 21.5168 32.805C21.5314 32.8001 21.5508 32.7904 21.5654 32.7856C21.6043 32.8779 21.6384 32.9654 21.687 33.0821C21.7356 32.9703 21.7745 32.8731 21.8231 32.7661C21.9446 32.8001 22.0662 32.839 22.1828 32.8731C22.1002 33.2668 22.1002 33.2668 21.7502 33.1599C21.6481 33.1259 21.546 33.0967 21.4147 33.0529C21.4342 33.1842 21.4682 33.2912 21.4536 33.3884C21.4342 33.4662 21.3613 33.5391 21.3126 33.612Z" fill="#B9D9BC"/>
<path d="M21.1862 28.906C21.2056 28.9789 21.2202 29.0227 21.2348 29.0859C21.4244 28.9303 21.4293 29.0859 21.4682 29.1637C21.789 29.2755 22.1147 29.3824 22.4453 29.4991C22.3481 29.713 22.2314 29.7908 22.0321 29.6936C21.7501 29.5575 21.4584 29.4456 21.1813 29.2949C21.0161 29.2026 21.0112 29.0616 21.1862 28.906Z" fill="#B9D9BC"/>
<path d="M28.1381 4.95862C28.2159 5.0364 28.2888 5.11419 28.3666 5.19197C28.1867 5.32809 28.0068 5.46907 27.8221 5.6052C27.8367 5.61978 27.8464 5.63437 27.861 5.64895C27.7686 5.65867 27.6762 5.66353 27.5839 5.67326L27.5887 5.67812C27.545 5.63437 27.5012 5.59061 27.4478 5.53714C27.545 5.40101 27.6325 5.22114 27.7686 5.09474C27.8561 5.01209 28.0117 4.99751 28.1381 4.95862Z" fill="#B9D9BC"/>
<path d="M37.3019 23.962C37.1609 23.9912 37.02 24.0204 36.8401 24.0544C36.9519 24.1225 37.0394 24.1711 37.122 24.2197C37.1123 24.2343 37.1026 24.2489 37.0929 24.2586C36.9665 24.2586 36.8401 24.2586 36.7185 24.2586C36.7185 24.2732 36.7137 24.2926 36.7137 24.3072C36.8352 24.3412 36.9616 24.3752 37.1464 24.4239C36.8936 24.4822 36.7137 24.526 36.5289 24.5648C36.5435 24.3752 36.5581 24.1857 36.5727 23.9912C36.7963 23.9426 37.0686 23.8794 37.3505 23.821C37.3408 23.8454 37.3165 23.9037 37.2922 23.962C37.2922 23.9669 37.3019 23.962 37.3019 23.962Z" fill="#B9D9BC"/>
<path d="M23.8163 34.5748C23.8406 34.7109 23.86 34.8227 23.8941 34.9977C23.9427 34.8178 23.9767 34.6866 24.0107 34.5602C24.0351 34.565 24.0594 34.5699 24.0837 34.5748C24.0691 34.7595 24.0545 34.9442 24.0399 35.1338C23.8892 35.197 23.7482 35.2554 23.5927 35.3186C23.544 34.954 23.6704 34.5893 23.8163 34.5748Z" fill="#B9D9BC"/>
<path d="M32.0515 11.5311C32.1342 11.5652 32.2168 11.5992 32.2995 11.6332C32.2995 11.6478 32.2995 11.6624 32.2946 11.677C32.1488 11.677 32.0029 11.677 31.8376 11.677C31.8279 11.7305 31.8133 11.7985 31.7987 11.8812C31.6675 11.8812 31.5362 11.8812 31.3515 11.8812C31.5362 11.7645 31.6626 11.6867 31.7939 11.6041C31.7842 11.5797 31.7744 11.5554 31.7696 11.536C31.8279 11.5457 31.8863 11.5603 31.9349 11.57C32.2168 11.2832 32.2314 11.2783 32.3578 11.4728C32.2557 11.4679 32.1682 11.4631 32.0758 11.4582C32.0661 11.4776 32.0613 11.502 32.0515 11.5311Z" fill="#B9D9BC"/>
<path d="M31.191 11.1716C31.191 11.1473 31.191 11.1035 31.191 11.0549C31.3417 11.0744 31.4925 11.0938 31.6626 11.1133C31.6091 11.264 31.58 11.3515 31.5411 11.4536C31.4438 11.4536 31.332 11.4536 31.191 11.4536C31.3369 11.3515 31.4341 11.2834 31.5265 11.2202C31.5168 11.1911 31.5119 11.1619 31.5022 11.1376C31.4098 11.1424 31.3174 11.157 31.191 11.1716Z" fill="#B9D9BC"/>
<path d="M43.6656 20.3646C43.6996 20.4084 43.7385 20.457 43.7725 20.5007C43.6267 20.5591 43.4857 20.6223 43.3398 20.6806C43.4517 20.5736 43.5586 20.4716 43.6656 20.3646Z" fill="#B9D9BC"/>
<path d="M30.598 12.0075C30.5689 12.0513 30.5494 12.1047 30.5105 12.1291C30.4522 12.1728 30.3793 12.202 30.3063 12.2263C30.2966 12.2311 30.2675 12.1679 30.248 12.1388C30.3063 12.1047 30.3598 12.0707 30.4182 12.0367C30.4668 12.0124 30.5154 11.9929 30.564 11.9686C30.5737 11.9832 30.5834 11.9929 30.598 12.0075Z" fill="#B9D9BC"/>
<path d="M29.9563 10.238C29.7958 10.4422 29.6111 10.4714 29.4118 10.3644C29.5819 10.3255 29.7521 10.2867 29.9563 10.238Z" fill="#B9D9BC"/>
<path d="M39.5916 33.8695C39.4798 33.8938 39.368 33.9376 39.2513 33.9376C39.0909 33.9424 38.9256 33.923 38.7117 33.9084C38.8818 33.7626 39.0471 33.6216 39.2124 33.4806C39.3388 33.6118 39.4652 33.7431 39.5916 33.8695Z" fill="#B9D9BC"/>
<path d="M26.1352 38.3955C25.9893 38.3955 25.8435 38.3906 25.6976 38.3906C25.7754 38.3274 25.8581 38.2642 25.9358 38.1962C25.999 38.2642 26.0671 38.3274 26.1352 38.3955Z" fill="#B9D9BC"/>
</g>
<defs>
<clipPath id="clip0">
<rect width="52.0613" height="40" fill="white"/>
</clipPath>
</defs>
</svg>
