<svg width="32" height="32" viewBox="0 0 32 32" fill="none" xmlns="http://www.w3.org/2000/svg">
<path d="M27.6651 16L29.1371 13.456C29.5051 12.8173 29.2864 12.0027 28.6504 11.6347L26.1038 10.1627V7.22934C26.1038 6.49201 25.5078 5.89601 24.7704 5.89601H21.8384L20.3678 3.35067C20.1904 3.04534 19.8984 2.82134 19.5584 2.72934C19.2171 2.63601 18.8531 2.68534 18.5464 2.86267L15.9998 4.33467L13.4531 2.86134C12.8144 2.49201 11.9998 2.71201 11.6318 3.34934L10.1598 5.89601H7.22777C6.49043 5.89601 5.89443 6.49201 5.89443 7.22934V10.1613L3.34777 11.6333C3.0411 11.8107 2.81843 12.1027 2.72777 12.444C2.6371 12.7867 2.6851 13.1493 2.8611 13.456L4.3331 16L2.8611 18.544C2.68377 18.8507 2.63577 19.2147 2.72643 19.5573C2.8171 19.8987 3.03977 20.1907 3.34643 20.3667L5.8931 21.8387V24.7707C5.8931 25.508 6.4891 26.104 7.22643 26.104H10.1598L11.6318 28.6507C11.8091 28.956 12.1011 29.1787 12.4424 29.272C12.5558 29.3013 12.6704 29.3173 12.7864 29.3173C13.0184 29.3173 13.2491 29.256 13.4544 29.1373L15.9984 27.6653L18.5451 29.1373C18.8504 29.3147 19.2158 29.3613 19.5571 29.2707C19.8984 29.18 20.1904 28.9573 20.3664 28.6507L21.8371 26.104H24.7691C25.5064 26.104 26.1024 25.508 26.1024 24.7707V21.8387L28.6491 20.3667C29.2864 19.9973 29.5051 19.1813 29.1358 18.544L27.6651 16ZM12.6651 9.32001C13.7691 9.32001 14.6651 10.216 14.6651 11.32C14.6651 12.424 13.7691 13.32 12.6651 13.32C11.5611 13.32 10.6651 12.424 10.6651 11.32C10.6651 10.216 11.5611 9.32001 12.6651 9.32001ZM13.0651 22.12L10.9318 20.5213L18.9318 9.85467L21.0651 11.4533L13.0651 22.12ZM19.3318 22.6533C18.2278 22.6533 17.3318 21.7573 17.3318 20.6533C17.3318 19.5493 18.2278 18.6533 19.3318 18.6533C20.4358 18.6533 21.3318 19.5493 21.3318 20.6533C21.3318 21.7573 20.4358 22.6533 19.3318 22.6533Z" fill="white"/>
</svg>
