<svg width="32" height="32" viewBox="0 0 32 32" fill="none" xmlns="http://www.w3.org/2000/svg">
<path d="M5.2002 13C6.8574 13 8.2002 11.6572 8.2002 10L10.6002 1.60001H7.0002L2.2002 10C2.2002 11.6572 3.543 13 5.2002 13Z" fill="white"/>
<path d="M12.3999 13C14.0571 13 15.3999 11.6572 15.3999 10V1.60001H11.7999L9.3999 10C9.3999 11.6572 10.7427 13 12.3999 13Z" fill="white"/>
<path d="M26.7999 13C28.4571 13 29.7999 11.6572 29.7999 10L24.9999 1.60001H21.3999L23.7999 10C23.7999 11.6572 25.1427 13 26.7999 13Z" fill="white"/>
<path d="M19.6001 13C21.2573 13 22.6001 11.6572 22.6001 10L20.2001 1.60001H16.6001V10C16.6001 11.6572 17.9429 13 19.6001 13Z" fill="white"/>
<path d="M27.9998 14.0044C27.6182 14.1196 27.2198 14.2 26.7998 14.2C25.265 14.2 23.933 13.3612 23.201 12.1264C22.469 13.3612 21.1346 14.2 19.5998 14.2C18.065 14.2 16.7306 13.3624 15.9998 12.1288C15.2678 13.3624 13.9358 14.2 12.3998 14.2C10.8638 14.2 9.5306 13.3612 8.7986 12.1264C8.0666 13.3612 6.7358 14.2 5.1998 14.2C4.7798 14.2 4.3826 14.1196 3.9998 14.0044V26.8H2.7998V28H29.1998V26.8H27.9998V14.0044ZM20.1998 26.8H11.7998V21.1996C11.7998 18.88 13.6802 16.9996 15.9998 16.9996C18.3206 16.9996 20.1998 18.88 20.1998 21.1996V26.8Z" fill="white"/>
</svg>
